<svg xmlns="http://www.w3.org/2000/svg" viewBox="0 0 512 512">
		<path d="M421.184,384.96l-81.728-20.437l-6.955-27.819c21.867-21.653,36.843-51.392,41.28-81.899
			c12.117-3.413,21.504-13.803,23.125-26.837l5.333-42.667c1.131-9.003-1.643-18.112-7.616-24.939
			c-3.499-4.011-7.915-7.04-12.8-8.896l1.963-40.171l7.979-8c12.011-12.779,21.973-34.688,1.152-66.475
			C376.917,12.395,349.739,0,312.107,0c-14.848,0-49.024,0-80.853,21.376C140.373,23.275,128,65.493,128,106.667
			c0,9.579,2.325,31.147,3.861,44.16c-5.483,1.728-10.453,4.928-14.336,9.344c-6.08,6.891-8.896,16.043-7.765,25.152l5.333,42.667
			c1.749,13.909,12.309,24.853,25.664,27.456c4.416,29.333,18.624,58.112,39.232,79.403l-7.424,29.717l-81.728,20.437
			C37.333,398.336,0,446.165,0,501.333C0,507.221,4.779,512,10.667,512h490.667c5.888,0,10.667-4.821,10.667-10.709
			C512,446.165,474.667,398.336,421.184,384.96z"/>
</svg>
