<svg xmlns="http://www.w3.org/2000/svg" viewBox="0 0 512 512"><path d="M-512,32c-88.224,0-160,71.776-160,160s71.776,160,160,160,160-71.776,160-160S-423.776,32-512,32Zm87.971,260.333A39.484,39.484,0,0,1-452.155,304a39.485,39.485,0,0,1-28.127-11.67l-28.079-28.119a40.423,40.423,0,0,1-4.058-4.753,40.2,40.2,0,0,1-3.256,3.668l-50.613,50.533A7.975,7.975,0,0,1-571.94,316a7.973,7.973,0,0,1-5.653-2.339l-33.74-33.69A39.484,39.484,0,0,1-623,251.845a39.485,39.485,0,0,1,11.67-28.127l28.119-28.079a40.354,40.354,0,0,1,4.917-4.178,40.312,40.312,0,0,1-4.827-4.13l-50.538-50.619a8,8,0,0,1,0-11.3l33.69-33.74A39.484,39.484,0,0,1-571.845,80a39.485,39.485,0,0,1,28.127,11.67l28.079,28.119a40.423,40.423,0,0,1,4.058,4.753,40.2,40.2,0,0,1,3.256-3.668l50.613-50.533a8,8,0,0,1,11.305,0l33.74,33.69A39.484,39.484,0,0,1-401,132.155a39.485,39.485,0,0,1-11.67,28.127l-28.119,28.079a40.354,40.354,0,0,1-4.917,4.178,40.312,40.312,0,0,1,4.827,4.13l50.538,50.619a8,8,0,0,1,0,11.305Zm-28.172-84.36,44.9,44.966-28.047,28.088a23.588,23.588,0,0,1-16.8,6.975,23.592,23.592,0,0,1-16.8-6.975l-28.079-28.118a23.768,23.768,0,0,1-4.317-5.927A55.566,55.566,0,0,0-472.406,231.6a55.725,55.725,0,0,0,15.1-27.509A23.788,23.788,0,0,1-452.2,207.973ZM-512,368a176.7,176.7,0,0,1-24.927-1.773L-550.556,448h77.112l-13.629-81.773A176.7,176.7,0,0,1-512,368Zm8,64h-16a8,8,0,0,1-8-8,8,8,0,0,1,8-8h16a8,8,0,0,1,8,8A8,8,0,0,1-504,432Zm0-32h-16a8,8,0,0,1-8-8,8,8,0,0,1,8-8h16a8,8,0,0,1,8,8A8,8,0,0,1-504,400Zm-104,64h192a24.042,24.042,0,0,1,22.629,16H-630.629A24.042,24.042,0,0,1-608,464Zm135.6-311.594a55.577,55.577,0,0,0-28.406-15.285,23.707,23.707,0,0,1,3.779-4.92l44.966-44.9,28.088,28.047a23.588,23.588,0,0,1,6.975,16.8,23.592,23.592,0,0,1-6.975,16.8l-28.118,28.079a23.924,23.924,0,0,1-5.018,3.819A55.587,55.587,0,0,0-472.4,152.406Zm-79.2,79.188a55.577,55.577,0,0,0,28.406,15.285,23.707,23.707,0,0,1-3.779,4.92l-44.966,44.9-28.088-28.047a23.588,23.588,0,0,1-6.975-16.8,23.592,23.592,0,0,1,6.975-16.8l28.118-28.079a23.905,23.905,0,0,1,5.017-3.818A55.589,55.589,0,0,0-551.6,231.594Zm67.88-11.308A39.719,39.719,0,0,1-511.74,232h-.594a39.737,39.737,0,0,1-27.952-11.72A39.783,39.783,0,0,1-552,192.26c-.008-.467,0-.926.018-1.43a39.791,39.791,0,0,1,11.7-27.116A39.719,39.719,0,0,1-512.26,152h.594a39.737,39.737,0,0,1,27.952,11.72A39.742,39.742,0,0,1-472,191.676c0,.021,0,.043,0,.064.008.467,0,.926-.018,1.43A39.791,39.791,0,0,1-483.72,220.286ZM-571.8,176.027l-44.9-44.966,28.047-28.088A23.588,23.588,0,0,1-571.845,96a23.592,23.592,0,0,1,16.8,6.975l28.079,28.118a23.768,23.768,0,0,1,4.317,5.927A55.566,55.566,0,0,0-551.594,152.4a55.725,55.725,0,0,0-15.1,27.509A23.788,23.788,0,0,1-571.8,176.027ZM248,272H152V184h96ZM360,80H264v88h96Zm8-16h16V48H128V64H368ZM248,80H152v88h96Zm32,224H232V432h48ZM216,432V304H168V432ZM152,304H104V432h48ZM32,464H480V448H32Zm69.394-232H50.606l11.429,40h27.93ZM344,432V304H296V432Zm16-128V432h48V304H360Zm0-120H264v88h96Zm-254.343-1.657a8,8,0,0,0-11.314,0L84,192.687,61.657,170.343a8,8,0,0,0-11.314,11.314L72.687,204l-12,12H83.313l22.344-22.343A8,8,0,0,0,105.657,182.343ZM480,312V280a8,8,0,0,0-8-8H40a8,8,0,0,0-8,8v32a8,8,0,0,0,16,0V288H464v24a8,8,0,0,0,16,0Z"/></svg>
