<svg xmlns="http://www.w3.org/2000/svg" viewBox="0 0 512 512"><path d="M219.43 73.145h73.141v121.902H219.43zm-73.145 121.906h48.762V60.953a12.19 12.19 0 0 1 12.191-12.187h97.523a12.19 12.19 0 0 1 12.191 12.188v134.098h48.762V12.191A12.19 12.19 0 0 0 353.523 0H158.477c-6.734 0-12.191 5.457-12.191 12.191zm353.528 195.047h-12.191V182.859c0-6.734-5.461-12.191-12.191-12.191h-24.383c-6.73 0-12.191 5.457-12.191 12.191v36.57H73.145v-36.57c0-6.734-5.461-12.191-12.191-12.191H36.57c-6.73 0-12.191 5.457-12.191 12.191v207.238H12.191C5.457 390.098 0 395.555 0 402.289v24.379c0 6.734 5.457 12.191 12.191 12.191h487.621A12.19 12.19 0 0 0 512 426.668v-24.379a12.19 12.19 0 0 0-12.187-12.191zm-402.289 0H73.145V243.812h24.379zm48.762 0h-24.379V243.812h24.379zm48.762 0h-24.379V243.812h24.379zm48.762 0h-24.38V243.812h24.379zm48.762 0h-24.379V243.812h24.379zm48.762 0h-24.379V243.812h24.379zm48.762 0h-24.379V243.812h24.379zm24.383-146.285h24.383v146.285h-24.383zm0 0"/></svg>