<svg xmlns="http://www.w3.org/2000/svg" viewBox="0 0 512 512">
<path d="M121.081 183.421h114.162v89.946H121.081zM122.964 141.904h112.279V31.069c-57.229 8.874-102.675 53.847-112.279 110.835zM276.757 31.069v110.836h112.279c-9.604-56.989-55.05-101.962-112.279-110.836zM276.757 183.421h114.162v89.946H276.757zM491.243 314.877H20.757C9.295 314.877 0 324.171 0 335.634c0 11.463 9.295 20.757 20.757 20.757h6.919v103.784c0 11.463 9.295 20.757 20.757 20.757h415.135c11.465 0 20.757-9.293 20.757-20.757V356.391h6.919c11.465 0 20.757-9.293 20.757-20.757-.001-11.463-9.293-20.757-20.758-20.757zm-380.54 57.081V439.418H69.189v-83.027H110.702v15.567zm83.027 0V439.418h-41.513V356.39h41.513v15.568zm83.027 0V439.418h-41.514V356.39h41.514v15.568zm83.027 0V439.418H318.27V356.39h41.514v15.568zm83.027 67.46h-41.514V356.39H442.81v83.028z"/></svg>