<svg xmlns="http://www.w3.org/2000/svg" viewBox="0 0 512 512"><path d="M440 143.992h16V116.68a8.022 8.022 0 0 0 -2.336 -5.664l-16 -16 -11.32 11.32 13.656 13.664Zm-60.136 80L364.952 189.2c-3.968 1.769 -8.336 2.793 -12.952 2.793s-8.984 -1.024 -12.96 -2.793L324.128 223.992ZM336 160c0 8.824 7.176 16 16 16s16 -7.176 16 -16 -7.176 -16 -16 -16 -16 7.168 -16 16Zm144 79.992H32c-4.408 0 -8 3.592 -8 8 0 4.407 3.593 8 8 8h448c4.408 0 8 -3.593 8 -8 0 -4.408 -3.593 -8 -8 -8Zm-323.735 235.368c-12.689 -7.559 -20.265 -20.552 -20.265 -34.744V368h-16v72.624c0 14.192 -7.575 27.184 -20.265 34.743 -4.864 2.897 -8.496 7.425 -10.344 12.632H166.617c-1.864 -5.215 -5.488 -9.735 -10.352 -12.64Zm315.728 -275.368c0 -5.16 -2.008 -10.008 -5.656 -13.656 -6.672 -6.664 -10.344 -15.528 -10.344 -24.968v-9.368h-16v9.376c0 9.432 -3.672 18.304 -10.336 24.968 -3.656 3.648 -5.656 8.496 -5.656 13.648v24h48v-24Zm-111.992 -70.864 -0.008 -17.128c0 -4.416 -3.585 -8 -7.992 -8 -4.416 0 -8 3.585 -8 8v17.136c2.567 -0.672 5.224 -1.136 8 -1.136 2.777 0 5.425 0.464 8 1.128Zm0 0zM40 400H80v16H40v16H80V448H40v16h48v0.071c1.144 -0.863 2.304 -1.703 3.544 -2.447 7.8 -4.648 12.456 -12.496 12.456 -21v-72.632H80c-4.424 0 -8 -3.577 -8 -8v-24c0 -13.232 10.768 -24 24 -24h64c13.231 0 24 10.768 24 24v24c0 4.423 -3.576 8 -8 8h-24v72.624c0 8.496 4.656 16.352 12.456 21 1.239 0.743 2.399 1.583 3.544 2.439v-0.056h48v0.064c1.144 -0.864 2.304 -1.704 3.544 -2.447 7.792 -4.648 12.456 -12.496 12.456 -21v-72.624H208c-4.424 0 -8 -3.577 -8 -8v-24c0 -13.232 10.768 -24 24 -24h64c13.231 0 24 10.768 24 24v24c0 4.423 -3.576 8 -8 8h-24l-0.008 72.624c0 8.496 4.664 16.352 12.464 21 1.239 0.743 2.399 1.583 3.544 2.439v-0.056h48v0.064c1.144 -0.864 2.304 -1.704 3.544 -2.447 7.792 -4.648 12.456 -12.496 12.456 -21v-72.624H336c-4.424 0 -8 -3.577 -8 -8v-24c0 -13.232 10.768 -24 24 -24h64c13.231 0 24 10.768 24 24v24c0 4.423 -3.576 8 -8 8h-24l-0.008 72.624c0 8.496 4.664 16.352 12.464 21 1.239 0.743 2.408 1.583 3.544 2.447v-0.063h48v-16.008H432v-16h40v-16H432v-16h40V272H40Zm0 0zM412.265 475.36c-12.689 -7.568 -20.272 -20.552 -20.272 -34.744l0.008 -72.616h-16v72.624c0 14.192 -7.575 27.184 -20.265 34.743 -4.864 2.897 -8.496 7.425 -10.344 12.632h77.225c-1.864 -5.215 -5.488 -9.735 -10.352 -12.64Zm11.728 -139.36c0 -4.416 -3.585 -8 -8 -8h-64c-4.417 0 -8 3.585 -8 8v16h80Zm-255.992 0c0 -4.416 -3.585 -8 -8 -8h-64c-4.416 0 -8 3.585 -8 8v16h80Zm127.992 0c0 -4.416 -3.585 -8 -8 -8h-64c-4.417 0 -8 3.585 -8 8v16h80Zm-11.728 139.36c-12.689 -7.568 -20.272 -20.552 -20.272 -34.744l0.008 -72.616h-16v72.624c0 14.192 -7.575 27.184 -20.265 34.743 -4.864 2.897 -8.496 7.425 -10.344 12.632H294.617c-1.864 -5.215 -5.488 -9.735 -10.352 -12.64ZM488 32c0 -4.416 -3.593 -8.008 -8 -8.008h-48v16h48c4.408 0.008 8 -3.585 8 -7.992ZM128 23.992h256v16H128Zm271.992 0h16.008v16h-16.008Zm-304 0h16.008v16h-16.008Zm-64 16.008h48v-16H31.992c-4.408 0 -8 3.593 -8 8 0 4.408 3.592 8 8 8Zm48 16H64v28.728a27.262 27.262 0 0 1 -8 19.272 27.321 27.321 0 0 0 -8 19.312V128c0 4.416 3.585 8 8 8h32c4.416 0 8 -3.585 8 -8v-4.688a27.307 27.307 0 0 0 -8 -19.312 27.321 27.321 0 0 1 -8 -19.312c0 -0.016 -0.008 -0.024 -0.008 -0.04ZM128 136h32c4.416 0 8 -3.585 8 -8v-4.688a27.307 27.307 0 0 0 -8 -19.312 27.321 27.321 0 0 1 -8 -19.312c0 -0.016 -0.008 -0.024 -0.008 -0.04v-28.648h-16v28.728a27.262 27.262 0 0 1 -8 19.272 27.321 27.321 0 0 0 -8 19.312V128c0.008 4.416 3.592 8 8.008 8Zm80 -80v28.728a27.262 27.262 0 0 1 -8 19.272A27.321 27.321 0 0 0 192 123.312V128c0 4.416 3.585 8 8 8h32c4.416 0 8 -3.585 8 -8v-4.688a27.307 27.307 0 0 0 -8 -19.312 27.321 27.321 0 0 1 -8 -19.312c0 -0.016 -0.008 -0.024 -0.008 -0.04v-28.648Zm0 0"/></svg>