<svg xmlns="http://www.w3.org/2000/svg" viewBox="0 0 512 512"><path d="M391 245c0-16.542-13.458-30-30-30h-30c-16.542 0-30 13.458-30 30v105h90zM61 75c0-24.81 20.19-45 45-45h30c20.274 0 37.456 13.484 43.064 31.952C145.842 69.654 121 99.47 121 135v15h150v-15c0-36.668-26.457-67.253-61.28-73.72C203.253 26.454 172.664 0 136 0h-30C64.65 0 31 33.64 31 75v140h30zM421 380H271v-45H31v45c0 39.251 21.65 73.533 53.632 91.548l-19.238 19.238L86.606 512l28.995-28.995A105.174 105.174 0 00136 485h240c6.978 0 13.798-.691 20.399-1.995L425.394 512l21.213-21.213-19.238-19.238C459.35 453.533 481 419.251 481 380v-45h-60zM482 245h-61v60h61c16.54 0 30-13.46 30-30s-13.46-30-30-30zM271 245H30c-16.54 0-30 13.46-30 30s13.46 30 30 30h241z"/></svg>