<svg viewBox="0 0 512 512" xmlns="http://www.w3.org/2000/svg"><path d="M463.755 399.555v9c0 13.255-10.745 24-24 24h-400c-13.255 0-24-10.745-24-24v-9a8 8 0 018-8h432a8 8 0 018 8zm-40-114h-368c-22.091 0-40 17.909-40 40v42a8 8 0 008 8h432a8 8 0 008-8v-42c0-22.091-17.908-40-40-40zm-115.72-269.93c-18.281-21.351-50.778-20.493-68.28.57-9.09-10.94-23.15-17.21-37.84-16.05-24.54 1.92-42.94 23.45-41.02 47.99 4.15 53.09 49.48 86.97 78.86 86.97 25.16 0 74.42-29.87 78.86-86.99.93-11.89-2.83-23.43-10.58-32.49zM53.348 448.555c-5.546 0-9.505 5.541-7.525 10.721 10.316 26.988 48.556 26.971 58.866 0 1.98-5.18-1.98-10.721-7.525-10.721zm329 0c-5.546 0-9.505 5.541-7.525 10.721 10.316 26.988 48.556 26.971 58.866 0 1.98-5.18-1.98-10.721-7.525-10.721zm-184.593-205h-65a8 8 0 00-8 8v10a8 8 0 008 8h65a8 8 0 008-8v-10a8 8 0 00-8-8zm149 0h-65a8 8 0 00-8 8v10a8 8 0 008 8h65a8 8 0 008-8v-10a8 8 0 00-8-8zm64.529-177.983a7.999 7.999 0 00-8.529 7.983v30h-82.566c-7.201 0-5.946 6.084-22.024 20.96-17.75 16.4-40.13 26.59-58.41 26.59-19.57 0-44.19-11.27-63.48-31.55-11.341-11.908-10.701-16-16.952-16H76.755v-30a7.999 7.999 0 00-8.529-7.983c-4.253.273-7.471 3.993-7.471 8.255v187.728a8 8 0 008 8h32a8 8 0 008-8v-10c0-13.255 10.745-24 24-24h65c13.255 0 24 10.745 24 24v10a8 8 0 008 8h20a8 8 0 008-8v-10c0-13.255 10.745-24 24-24h65c13.255 0 24 10.745 24 24v10a8 8 0 008 8h32a8 8 0 008-8V73.827c0-4.262-3.217-7.982-7.471-8.255z"/></svg>