<svg xmlns="http://www.w3.org/2000/svg" viewBox="0 0 512 512"><rect height="3.24" rx=".93" width="2.19" x="30.34" y="23.63zM21.52 24.81v1.38a.93.93 0 01-.94.93h-.32a.922.922 0 01-.93-.93v-1.38a.928.928 0 01.93-.93h.32a.937.937 0 01.94.93zM18.45 24.37a.5.5 0 01-.313-.89 2.677 2.677 0 013.357 0 .5.5 0 01-.629.778 1.686 1.686 0 00-2.1 0 .5.5 0 01-.315.112zM32.2 24.12a.5.5 0 01-.313-.11 1.677 1.677 0 00-2.105 0 .5.5 0 01-.627-.78 2.681 2.681 0 013.359 0 .5.5 0 01-.314.89zM25.557 33.979a2.578 2.578 0 01-1.893-.661.5.5 0 01.772-.636 1.664 1.664 0 001.125.3 2.354 2.354 0 001.752-.626.5.5 0 01.774.634 3.268 3.268 0 01-2.525.992zM25.24 30.634a1.35 1.35 0 01-.925-.373 1 1 0 01-.341-1.011.5.5 0 01.971.218.4.4 0 00.159.135.3.3 0 00.246.011.5.5 0 11.361.932 1.31 1.31 0 01-.471.088zM32.7 21.92a.5.5 0 01-.307-.106 9.433 9.433 0 00-4.063-.34.5.5 0 11-.42-.908c.824-.381 4.319-.149 5.1.46a.5.5 0 01-.308.894zM41.726 27.812a.5.5 0 01-.489-.607 2.189 2.189 0 012.346-1.587.5.5 0 01.435.557.506.506 0 01-.558.435 1.212 1.212 0 00-1.246.808.5.5 0 01-.488.394z"/><path d="M50.313 54.14c-1.651-4.884-3.909-7.1-10.063-9.864a2.833 2.833 0 01-.623-.381c-2.119-1.642-2.587-5.952-2.671-7a13.906 13.906 0 003.627-5.228 3 3 0 00.965.407c2.331.519 4.252-1.541 4.766-3.835a5.37 5.37 0 00-.545-3.97 3.565 3.565 0 00-.372-.48 2.019 2.019 0 01.538-.324 10.016 10.016 0 001-.547c4.2-2.649 3.587-7.915 1.238-11.687a17.835 17.835 0 00-9.286-7.3 11.052 11.052 0 00-4.231-.477 2.11 2.11 0 01-1.33-.363c-3.088-1.971-7.963-1.134-10.573.884a16.613 16.613 0 01-4.2 2.433c-.685.295-1.461.631-2.449 1.139-3.148 1.617-4.491 4.139-5.866 8.224a6.262 6.262 0 00.968 5.948 6.072 6.072 0 005.072 2.25c.159.877.26 1.651.275 1.919.308 6.025 1.387 9.753 3.5 12.089a9.985 9.985 0 007.567 3.003c.126 0 .3-.013.5-.033.5 2.1.447 3.554-.173 4.01a11.023 11.023 0 01-1.734.756l-.389.15c-2.944 1.129-9.071 3.479-11.748 8.832-1.077 2.138-.184 3.359.75 4 2.13 1.494 7.087 3.241 14.047 3.251 9.272 0 15.874-2.15 18.713-3.991 1.736-1.132 3.254-2.278 2.727-3.815zM27.192 46.4a6.635 6.635 0 001.344-.64c.989-.728 1.172-2.408.569-4.975a12.178 12.178 0 002.155-.7.5.5 0 10-.42-.907 10.93 10.93 0 01-2.407.72 6.762 6.762 0 01-.813.076 9.007 9.007 0 01-6.829-2.666c-1.946-2.152-2.945-5.69-3.242-11.471-.017-.325-.124-1.114-.274-1.962.022 0 .044 0 .066-.009 4.5-.835 6.9-4.84 7.588-8.016.281-1.294.791-3.083 1.977-3.682a3.094 3.094 0 012.663.21 1.753 1.753 0 001.28.06 2.959 2.959 0 012.833.295c1.684 1.254 2.2 4.418 2.128 6.746a6.7 6.7 0 003.9 6.154.508.508 0 00.638-.227 4.106 4.106 0 01.831-.977 2.976 2.976 0 012.326-.636 2.2 2.2 0 011.419 1.011 4.422 4.422 0 01.413 3.215c-.4 1.777-1.875 3.456-3.571 3.079a2.781 2.781 0 01-1.127-.622.5.5 0 00-.783.253 12.557 12.557 0 01-4.756 6.314.5.5 0 10.523.852c.14-.087.261-.188.394-.279.189 1.636.8 5.072 2.709 6.816-1.148 2.928-6.979 6.878-10.06 6.741a1.355 1.355 0 01-1.1-.645 5.506 5.506 0 01-.374-4.128z"/></svg>