<svg xmlns="http://www.w3.org/2000/svg" viewBox="0 0 512 512"><path d="m221.78 343.966-37.143-50.139c2.46-.077 5.46-.077 8.766-.077l50.062 26.992zm46.524-23.224 50.216-27.069h8.766l-37.296 50.293zm76.9-25.3-48.37 65.142a7.567 7.567 0 0 1-6.152 3.076 7.69 7.69 0 0 1-5.614-2.384l-29.145-31.298-29.222 31.298a7.69 7.69 0 0 1-11.766-.692l-47.985-65.211c-43.833 9.15-78.9 53.6-78.9 102.892V486.7a7.69 7.69 0 0 0 7.69 7.69h61.06v-91.288a7.69 7.69 0 1 1 15.38 0v91.288h167.642v-91.288a7.69 7.69 0 1 1 15.38 0v91.288h61.059a7.69 7.69 0 0 0 7.69-7.69v-88.435c0-49.216-35.297-93.518-78.746-102.823zM263.69 454.01a7.69 7.69 0 1 1-15.38 0v-18.994a7.69 7.69 0 1 1 15.38 0zm0-60.674a7.69 7.69 0 1 1-15.38 0V374.34a7.69 7.69 0 1 1 15.38 0zM357.662 102.5a111.574 111.574 0 0 0-27.453-17.218 105.353 105.353 0 0 0-43.372-9.074 125.27 125.27 0 0 0-51.062 11.304 276.163 276.163 0 0 1-73.516 16.764 32.683 32.683 0 0 0-6.767-.23c7.844-50.678 42.756-81.053 99.816-86.052 29.837-2.614 35.066 9.382 37.604 20.84a20.15 20.15 0 0 0 1.154 4 4.253 4.253 0 0 0 1.23.153h.077c49.831 3.684 60.213 31.137 62.289 59.513zm17.533 31.229a22.762 22.762 0 0 0-12.073-12.92 21.763 21.763 0 0 0-9.997-1.614 97.555 97.555 0 0 0-29.222-19.917 100.162 100.162 0 0 0-81.822 2.23c-27.76 12.535-72.44 17.456-80.207 18.302a22.07 22.07 0 0 0-12.919 1.154 22.762 22.762 0 0 0-12.073 12.919 47.063 47.063 0 0 0 2 35.143 46.563 46.563 0 0 0 25.146 26.07c15.226 46.831 48.985 92.74 91.972 92.74 42.987 0 76.67-45.986 91.895-92.818a46.863 46.863 0 0 0 25.3-26.223 46.863 46.863 0 0 0 2-35.066zm-171.64 30.606a7.69 7.69 0 0 1 0-15.38h17.532a7.69 7.69 0 0 1 0 15.38zm79.821 58.521a44.025 44.025 0 0 1-27.991 10.997 39.02 39.02 0 0 1-27.53-11.689 7.69 7.69 0 0 1 .384-10.92 7.805 7.805 0 0 1 10.843.308c1.538 1.615 15.457 14.995 34.528-.615a7.705 7.705 0 0 1 9.766 11.92zm25.07-58.52h-17.533a7.69 7.69 0 1 1 0-15.38h17.533a7.69 7.69 0 1 1 0 15.38zM271.38 301.593l-15.534 8.382-15.457-8.305A79.948 79.948 0 0 0 256 303.209a72.486 72.486 0 0 0 15.38-1.615z"/></svg>