<svg xmlns="http://www.w3.org/2000/svg" viewBox="0 0 512 512"><path d="M311.186 416.008c9.46 4.211 19.066 6.716 26.956 8.206l-10.38-71.454a148.828 148.828 0 01-55.529 17.438c3.829 20.825 16.667 35.889 38.953 45.81zM200.814 416.009c22.286-9.921 35.124-24.986 38.953-45.811a148.811 148.811 0 01-55.528-17.438l-10.38 71.453c7.89-1.489 17.496-3.993 26.955-8.204zM357.565 349.242l9.152 62.996 50.408-43.252zM62.2 380.479a52.375 52.375 0 00-28.465 46.658V512h181.749zM321.342 451.17c-6.8-1.777-14.109-4.154-21.441-7.351-19.267-8.4-33.993-20.186-43.901-34.946-9.909 14.76-24.634 26.546-43.901 34.946-7.332 3.197-14.64 5.574-21.441 7.351L256 507.235zM145.284 412.238l9.151-62.996-59.56 19.744zM449.8 380.479L296.517 512h181.749v-84.863a52.376 52.376 0 00-28.466-46.658zM256 0c-80.951 0-147.477 62.918-153.259 142.42h18.321c19.235 0 42.362-24.408 48.948-32.959l8.318-10.801 11.56 7.23c8.886 5.464 34.228 15.867 66.112 15.867 39.739 0 65.859-15.709 66.112-15.867l11.584-7.276 8.31 10.867c6.57 8.53 29.697 32.938 48.932 32.938h18.321C403.477 62.918 336.951 0 256 0zM326.366 137.288c-13.603 6.045-38.311 14.47-70.366 14.47s-56.763-8.425-70.366-14.47c-10.086 10.832-28.242 27.325-49.572 33.071v50.783c0 66.134 53.804 119.938 119.938 119.938s119.938-53.804 119.938-119.938v-50.783c-21.33-5.745-39.486-22.239-49.572-33.071zm-146.268 51.985h33.734v30h-33.734zm151.804 30h-33.734v-30h33.734zM440.534 237.225a48.507 48.507 0 01-15.862 2.665h-19.904c-3.505 27.973-14.75 53.571-31.511 74.585 24.696-.418 59.01-5.365 84.217-26.257-3.439-16.084-9.605-37.501-16.94-50.993zM107.232 239.89H87.328a48.48 48.48 0 01-15.862-2.665c-7.335 13.491-13.5 34.906-16.94 50.993 25.206 20.892 59.517 25.839 84.217 26.257-16.761-21.015-28.006-46.612-31.511-74.585zM424.672 172.42h-18.734v37.47h18.734c10.331 0 18.735-8.404 18.735-18.735s-8.405-18.735-18.735-18.735zM87.328 209.89h18.734v-37.47H87.328c-10.331 0-18.735 8.404-18.735 18.734 0 10.331 8.405 18.736 18.735 18.736z"/></svg>