<svg xmlns="http://www.w3.org/2000/svg" viewBox="0 0 512 512"><path d="M371.73 15.69H264.09v364.32h107.64zm-16.56 223.56h-16.56v-66.24h16.56zM139.89 380.01h107.64V15.69H139.89zm16.56-207h16.56v66.24h-16.56zM15.69 487.65a8.28 8.28 0 0 0 8.28 8.28h223.56v-99.36H15.69zm82.8-74.52h66.24v16.56H98.49zm24.84-397.44H23.97a8.28 8.28 0 0 0-8.28 8.28v356.04h107.64zm-16.56 223.56H90.21v-66.24h16.56zM487.65 15.69h-99.36v364.32h107.64V23.97a8.28 8.28 0 0 0-8.28-8.28zm-66.24 223.56h-16.56v-66.24h16.56zM264.09 495.93h223.56a8.28 8.28 0 0 0 8.28-8.28v-91.08H264.09zm82.8-82.8h66.24v16.56h-66.24z"/></svg>