<svg xmlns="http://www.w3.org/2000/svg" viewBox="0 0 512 512"><path d="M441.13 14.78H70.87a8.415 8.415 0 0 0-8.415 8.415v465.63a8.415 8.415 0 0 0 8.415 8.415h370.26a8.415 8.415 0 0 0 8.415-8.415V23.195a8.415 8.415 0 0 0-8.415-8.415zM174.655 306.5h84.15v171.105c0 .987.202 1.924.516 2.805H174.14c.314-.88.516-1.818.516-2.805zm-95.37-16.83V104.54h123.936a8.274 8.274 0 0 0-.516 2.805v25.082l-47.118 35.517a8.42 8.42 0 0 0 5.06 15.136h99.409a8.415 8.415 0 0 0 5.167-15.057l-45.688-35.528v-25.15c0-.987-.202-1.924-.516-2.805H343.47a8.274 8.274 0 0 0-.516 2.805v25.082l-47.118 35.517a8.42 8.42 0 0 0 5.065 15.136h99.41a8.415 8.415 0 0 0 5.166-15.057l-45.693-35.528v-25.15c0-.987-.202-1.924-.516-2.805h70.641c.987 0 1.924-.202 2.805-.516v186.162a8.274 8.274 0 0 0-2.805-.516zm131.762-142.455 24.482 19.035h-49.738zm140.25 0 24.476 19.035h-49.732zM432.715 31.61v56.616a8.274 8.274 0 0 0-2.805-.516H79.285v-56.1zM79.285 306.5h78.54v171.105c0 .987.202 1.924.516 2.805H79.285zm195.834 173.91c.314-.88.516-1.818.516-2.805V306.5H429.91c.987 0 1.924-.202 2.805-.516V480.41zM216.73 418.7a8.415 8.415 0 0 0 8.415-8.415v-28.05a8.415 8.415 0 0 0-16.83 0v28.05a8.415 8.415 0 0 0 8.415 8.415zm-100.98-44.88a8.415 8.415 0 0 0-8.415 8.415v28.05a8.415 8.415 0 0 0 16.83 0v-28.05a8.415 8.415 0 0 0-8.415-8.415z"/></svg>