<svg xmlns="http://www.w3.org/2000/svg" viewBox="0 0 512 512"><path d="M278.318 173.211l63.248 57.264 23.098-25.521c25.8 6.342 54.369-.35 74.863-20.845 14.573-14.573 30.12-41.677 38.687-67.442 11.564-34.786 9.469-61.38-6.06-76.907-15.526-15.529-42.121-17.625-76.907-6.06-25.766 8.566-52.869 24.113-67.442 38.687-20.085 20.083-27.331 48.5-20.841 74.881zM168.273 272.864L20.261 406.908C7.918 417.834.546 433.542.03 450.021-1.028 483.852 26.153 512 60.124 512c16.692 0 33.329-7.113 44.965-20.257l130.657-144.355zM511.97 450.021c-.516-16.479-7.887-32.187-20.23-43.112L206.022 148.217c6.959-25.199.574-53.343-19.194-73.111l-70.71-70.711c-5.858-5.858-15.355-5.858-21.213 0-5.858 5.857-5.858 15.355 0 21.213l40.305 40.306-24.042 24.042-40.306-40.307c-5.857-5.859-15.354-5.857-21.213 0-5.858 5.857-5.858 15.355 0 21.213l40.305 40.305-24.042 24.042-40.305-40.305c-5.857-5.857-15.355-5.857-21.213 0s-5.858 15.355 0 21.213l70.71 70.711c19.271 19.271 47.15 26.364 73.111 19.194C568.44 670.15 256.185 325.27 406.907 491.738c10.926 12.344 26.635 19.717 43.114 20.232 34.606 1.092 63.032-27.333 61.949-61.949z"/></svg>