<svg xmlns="http://www.w3.org/2000/svg" viewBox="0 0 512 512"><path d="m77.284 198.652 19.24-14.882v114.618h111.072V183.78l19.24 14.882 25.48-32.864-44.72-34.538a48.397 48.397 0 0 0-29.536-10.4 41.6 41.6 0 0 1-52 0 48.397 48.397 0 0 0-29.536 10.4l-44.72 34.528zM287.26 79.26v416h-260c-5.72 0-10.4-4.68-10.4-10.4V79.26zm20.8 406.016V79.26h83.2v406.016l-31.2-22.568V130.012c0-13.416-20.8-13.416-20.8 0v332.696zm156-355.264c0-13.416-20.8-13.416-20.8 0v332.696l-31.2 22.568V79.26h83.2v406.016l-31.2-22.568zm31.2-71.552H16.86v-31.2c0-5.72 4.68-10.4 10.4-10.4h457.6c5.72 0 10.4 4.68 10.4 10.4z"/></svg>