<svg xmlns="http://www.w3.org/2000/svg" viewBox="0 0 512 512"><path d="M503.058 157.279l-42.338-42.338 31.827-31.815a14.986 14.986 0 00.001-21.209l-42.612-42.612c-5.625-5.625-15.586-5.625-21.211 0L396.91 51.132 354.566 8.786c-11.715-11.715-30.71-11.715-42.426 0-11.717 11.715-11.717 30.71 0 42.426l148.491 148.493c11.717 11.715 30.712 11.715 42.427 0s11.715-30.71 0-42.426zM199.86 460.786L51.369 312.293c-11.717-11.715-30.71-11.715-42.427 0-11.715 11.717-11.715 30.712 0 42.427l42.345 42.345-31.765 31.752c-2.813 2.813-4.395 6.621-4.395 10.605s1.582 7.793 4.395 10.605l42.612 42.598c2.929 2.931 6.767 4.396 10.605 4.396s7.676-1.465 10.605-4.395l31.752-31.752 42.338 42.339c11.715 11.715 30.71 11.715 42.426 0 11.717-11.717 11.717-30.712 0-42.427zM269.713 178.492l-91.066 91.376 63.64 63.64 91.066-91.378zM460.632 242.131L269.713 51.212c-11.715-11.715-30.711-11.715-42.426 0-11.717 11.717-11.717 30.71 0 42.427l190.919 190.919c11.715 11.715 30.71 11.715 42.426 0 11.717-11.715 11.717-30.71 0-42.427zM284.714 418.36L93.794 227.44c-11.715-11.715-30.71-11.715-42.425 0-11.717 11.717-11.717 30.712 0 42.427l190.919 190.919c11.715 11.715 30.71 11.715 42.426 0 11.717-11.715 11.717-30.71 0-42.426z"/></svg>