<svg xmlns="http://www.w3.org/2000/svg" viewBox="0 0 512 512"><path d="M.1 334.6h511.7s4.7-21.3-31.2-40.9c-11.7-8.1-18.8-21.2-19.4-35.4-.9-24.1-21.5-32.8-26.2-36.1s-19.4-15.8-19.3-33.3c.1-25.9-19.4-41.7-24-42.8-4.7-1.1-10.7-10.4-16.3-26.8-5.4-15.8-16.7-18.4-19.5-33.3-5.7-30.8-74.1-98-160.9-45.5-19.8 12-30.4 28.1-36.3 50.5-1.9 6.8-4.6 13.3-8.2 19.3-9.8 17.4-18.5 19.2-21.5 21.7-11.7 9.9-18.6 12.7-27.4 46.3-5.7 22.2-18.6 32.3-23.4 34.7-1.8.9-23 15.5-26.6 40.1-1.9 13.3-6.8 29.8-21.7 36.3-8.9 4-31.8 9.7-29.8 45.2z" fill="#191919"/><path d="M349.7 189.8s22.8-6.1 26.2 14.1c.8 5.1.1 10.3-2 15-4 9.1-13.6 24.1-32.2 17.3" fill="#fff"/><path d="M350.6 240.5c-3.1 0-6.4-.6-9.7-1.8-1.4-.5-2-2-1.6-3.3.5-1.4 2-2 3.3-1.6 8.6 3.1 20.6 2.9 28.9-15.9 1.9-4.3 2.5-8.9 1.8-13.5-.8-4.7-2.9-8.1-6.1-10.2-6.8-4.4-16.8-1.8-16.9-1.8-1.4.4-2.8-.5-3.2-1.8-.4-1.4.5-2.8 1.8-3.2.5-.1 12.3-3.2 21 2.4 4.5 2.9 7.4 7.5 8.5 13.8.9 5.6.1 11.3-2.2 16.5-5.8 13.2-14.9 20.4-25.6 20.4z" fill="#191919"/><path d="M160.4 184.5s-22.4-7.5-27 12.4c-1.1 5-.7 10.3 1.1 15.1 3.5 9.4 12.1 24.9 31.1 19.3" fill="#fff"/><path d="M158 235c-11.4 0-20.6-7.7-25.9-22.1-2-5.3-2.4-11-1.2-16.5 1.4-6.2 4.5-10.6 9.2-13.2 9.1-5.1 20.6-1.3 21.1-1.1 1.4.5 2.1 1.9 1.6 3.3s-1.9 2.1-3.3 1.6c-.1 0-9.9-3.2-17 .7-3.3 1.9-5.6 5.2-6.7 9.8-1 4.5-.6 9.2 1 13.6 7.1 19.4 19.1 20.3 27.9 17.7 1.4-.4 2.8.4 3.2 1.8s-.4 2.8-1.8 3.2c-2.7.8-5.5 1.2-8.1 1.2z" fill="#191919"/><path d="M62.5 488.4s-12.4-57.3 62.4-92.1c0 0 83.5-46.9 90.4-50.4 0 0 38.2-16.2 79.9 0L406.8 405s49.5 28.9 42.5 83.4z" fill="#fff"/><path d="M451.6 491H60.4l-.4-2.1c-.1-.6-3.2-15.3 3.2-34.4 10.6-31.7 38.8-50.4 60.5-60.5 4.5-2.5 83.6-47 90.4-50.4l.1-.1c1.6-.7 39.7-16.4 81.9 0l.3.1L408 402.7c.6.4 51 30.5 43.9 86zm-386.8-5.2H447c5-50.6-41-78.3-41.5-78.6l-111.3-58.9c-39.3-15.2-75.9-.7-77.7 0-7.4 3.7-89.4 49.8-90.2 50.3l-.2.1c-64.2 29.8-62.6 76.7-61.3 87.1z" fill="#191919"/><path d="M210.7 350.9v-51.1h90.6v51.1" fill="#fff"/><path d="M301.3 353.5c-1.4 0-2.6-1.2-2.6-2.6v-48.5h-85.3v48.5c0 1.4-1.2 2.6-2.6 2.6s-2.6-1.2-2.6-2.6v-53.8H304v53.8c-.1 1.5-1.3 2.6-2.7 2.6z" fill="#191919"/><path d="M301.3 291.8s-47.9 30.8-90.6-4v12s44.9 47.9 90.6 37.7z" fill="#191919"/><g><path d="M256 326.8c-54.5 0-98.5-70.7-98.5-125.1V147c.1-54.4 44.2-98.5 98.7-98.5 54.4.1 98.5 44.2 98.5 98.7v54.7c0 54.4-44.2 124.9-98.7 124.9z" fill="#fff"/><path d="M256.1 329.4c-26.1 0-51.6-15.3-71.9-43.2-18.4-25.2-29.3-56.8-29.3-84.5V147c0-27 10.6-52.4 29.7-71.5s44.5-29.6 71.5-29.6h.1c55.8.1 101.2 45.5 101.1 101.3v54.7c0 27.7-11 59.3-29.5 84.5-20.3 27.7-45.7 43-71.7 43zm0-278.4c-25.6 0-49.7 10-67.8 28-18.1 18.1-28.1 42.2-28.2 67.8v54.7c0 26.6 10.6 57.1 28.3 81.4 19.3 26.5 43.3 41.1 67.6 41.1h.1c24.3 0 48.3-14.5 67.6-41 17.8-24.3 28.4-54.8 28.5-81.4v-54.7c0-52.7-43.1-95.8-96.1-95.9.1 0 .1 0 0 0z" fill="#191919"/></g><g fill="#191919"><path d="M171.8 370.1s33.7 68.7 84.3 68.4c24.8-.2 69.2-31.3 84.7-68.4 0 0 66.6 32.6 77.4 43.5 0 0 35.2 22.2 31 74.8H62.5s-9.7-51.2 46.2-83.4z"/><ellipse cx="293.5" cy="188.9" rx="6.4" ry="8.9"/><ellipse cx="208.9" cy="186.8" rx="6.4" ry="8.9"/><path d="M321.6 173.3c-.6 0-1.2-.2-1.7-.7-18.9-16.6-44.7-4.6-44.9-4.5-1.3.6-2.9.1-3.5-1.2s-.1-2.9 1.2-3.5c1.2-.6 29.1-13.6 50.6 5.3 1.1 1 1.2 2.6.2 3.7-.5.6-1.2.9-1.9.9zM178.9 171.7c-.8 0-1.5-.3-2-1-.9-1.1-.7-2.8.4-3.7 23.7-19.4 53-4.1 54.3-3.5 1.3.7 1.8 2.3 1.1 3.5-.7 1.3-2.3 1.8-3.5 1.1-.3-.1-27.5-14.2-48.5 2.9-.6.5-1.2.7-1.8.7zM246.7 261.5c-8.8 0-17.8-.4-25.2-1.6-1.4-.2-2.4-1.6-2.1-3 .2-1.4 1.6-2.4 3-2.1 20.7 3.5 57.4 0 57.8 0 1.4-.1 2.7.9 2.8 2.3s-.9 2.7-2.3 2.8c-1 .1-17.1 1.6-34 1.6zM252 236.5c-5.4 0-12.4-1-15.2-5.8-2.6-4.6-.6-10.9 6.2-19.3.1-.1 7.9-9.8 6.5-19.1-.2-1.4.8-2.7 2.2-3 1.4-.2 2.7.8 3 2.2 1.7 11.6-7.3 22.7-7.6 23.2-5 6.2-7.1 11.1-5.7 13.5 2.1 3.6 11.9 3.4 16.3 2.8 1.4-.2 2.7.8 3 2.2.2 1.4-.8 2.7-2.2 3-.7-.1-3.3.3-6.5.3zM168.8 81.8s-1.7 12.6 13.4 22.2c9.1 5.6 19.9 7.5 30.4 5.4 3.7-.7 7.4-1.1 11.1-1.2 12.5-.7 24.7 4.4 32.9 13.9 5.2 6.2 15.2 12.5 33.7 10.2 8.3-1.2 16.7.8 23.6 5.5l.3.2c3.6 2.6 6.4 6.3 8 10.4 3.7 9.2 26.6 33.8 43.3 29.1 0 0 2.9-28.1-11.8-63.3 0 0-33.8-83.5-116.4-76.5-.1-.1-49.5 3.5-68.5 44.1z"/></g><path d="M252.9 459.1H251c-37.9-3.8-62.2-25.3-75.9-42.7-14.8-18.8-20.6-36.5-20.8-37.2-.4-1.4.3-2.8 1.7-3.3 1.4-.4 2.8.3 3.3 1.7.2.7 23.2 69.5 92.2 76.3.1 0 15.5.9 35.6-8 18.5-8.2 44.9-26.6 65.4-67.8.6-1.3 2.2-1.8 3.5-1.2s1.8 2.2 1.2 3.5c-21.2 42.8-48.8 61.9-68.2 70.3-17.4 7.7-31.2 8.4-36.1 8.4z" fill="#fff"/></svg>