<svg xmlns="http://www.w3.org/2000/svg" viewBox="0 0 512 512"><circle cx="414.594" cy="73.801" r="38.379"/><path d="M515.934 151.056l-44.795-35.227c-5.729-4.504-12.123-1.515-18.299-.061-2.545.6-5.262.909-7.744 1.735a462.07 462.07 0 00-18.055 6.432c-11.205 4.275-23.451 8.718-33.053 16.102-1.754 1.346-3.539 2.849-4.68 4.773-1.656.948-3.152 2.228-4.34 3.88l-25.648 35.625-36.879 18.443c-6.803 3.399-9.559 11.671-6.156 18.473 2.414 4.826 7.275 7.613 12.326 7.613 2.068 0 4.17-.468 6.146-1.459l39.912-19.958a13.724 13.724 0 005.016-4.272l18.229-25.318c6.654 17.032 15.354 36.971 21.096 49.866l-44.414 9.229a15.299 15.299 0 00-12.096 13.314l-12.279 112.051c-.307 2.791.217 5.459 1.281 7.852h27.859c.623-1.406 1.098-2.902 1.275-4.516l11.068-101.001 48.062-9.988 11.9 10.915a16.827 16.827 0 00-.67 5.371l3.516 90.573a16.824 16.824 0 002.764 8.604l38.525 58.506h33.023c1.381-4.605.859-9.746-1.988-14.076l-38.869-59.025-3.334-85.884a16.812 16.812 0 00-.818-4.517l-.016-.346-16.998-117.309 27.428 21.57 4.369 49.728c.631 7.167 6.641 12.564 13.703 12.562.404 0 .814-.019 1.221-.055 7.576-.667 13.176-7.344 12.512-14.923l-4.893-55.662a13.763 13.763 0 00-5.207-9.62zM438.883 382.393H329.164v-59.76H219.442v-63.21H0V511.879l548.605 1.305-1.146-1.305h1.146v-71.027H438.883z"/></svg>