<svg xmlns="http://www.w3.org/2000/svg" viewBox="0 0 512 512"><path d="m461.5 293.57-4.734-2.371a8.564 8.564 0 0 0-7.652 15.322l12.386 6.19V446.82l-68.48-72.084V176.272l68.48-27.392zm9.647-158.84a17.12 17.12 0 0 0-15.99-1.711l-68.48 27.392a17.017 17.017 0 0 0-10.777 15.87v180.436l-25.68-27.041V131.94L495.74 24.76V482.9l-17.12-18.062v-315.95a17.12 17.12 0 0 0-7.473-14.157zM290.3 256.06h-8.56a8.56 8.56 0 0 0 0 17.12h8.56v51.36h-68.48V187.58h68.48zm17.12-68.48a17.12 17.12 0 0 0-17.12-17.12h-68.48a17.12 17.12 0 0 0-17.12 17.12v136.96h-25.68V136.22H333.1v188.32h-25.68zM50.62 446.82V148.872l68.48 27.392v100.152l-12.386 6.189a8.564 8.564 0 1 0 7.652 15.322l4.734-2.337v79.146zm74.823-286.452-68.48-27.392A17.12 17.12 0 0 0 33.5 148.889v315.95L16.38 482.9V24.76L161.9 131.983v197.693l-25.68 27.032V176.281a17.017 17.017 0 0 0-10.777-15.913zM281.74 33.5c0 9.279-11.761 17.12-25.68 17.12s-25.68-7.841-25.68-17.12 11.761-17.12 25.68-17.12 25.68 7.841 25.68 17.12zm-25.68 34.24c23.6 0 42.8-15.357 42.8-34.24a28.95 28.95 0 0 0-5.992-17.12h185.384l-139.4 102.72H173.268L33.868 16.38h185.384a28.95 28.95 0 0 0-5.992 17.12c0 18.883 19.2 34.24 42.8 34.24zm-181.07 428L188.838 375.9H323.29l113.848 119.84zm385.757 0L333.203 361.442a8.56 8.56 0 0 0-6.24-2.662H185.157a8.56 8.56 0 0 0-6.206 2.662L51.373 495.74H27.756l146.376-154.08H337.98l146.376 154.08z"/></svg>