<svg xmlns="http://www.w3.org/2000/svg" viewBox="0 0 512 512"><path d="M253.412 26.211c5.295-.298 10.561.803 15.321 3.094l197.153 94.575a31.624 31.624 0 0 1-.595 57.388c-7.17 2.975-16.63 4.403-26.745-.535L258.558 94.367a7.884 7.884 0 0 0-6.872 0L71.461 180.792c-8.033 4.165-17.464 4.67-25.883 1.339a31.833 31.833 0 0 1-16.957-15.708 32.338 32.338 0 0 1-1.756-22.848c1.666-6.158 6.783-14.875 17.285-19.576l.238-.119 197.094-94.575c3.748-1.785 7.794-2.856 11.93-3.094zm1.696 83.984L81.665 193.376v211.225H428.55V193.436zm-31.833 42.156h63.07s9.52-.149 19.278 4.76c9.758 4.879 20.111 15.083 20.111 34.6v7.942h31.565c17.314 0 31.535 14.221 31.535 31.535 0 17.315-14.22 31.476-31.535 31.476h-31.535v86.78c0 19.606-10.383 29.75-20.141 34.63-9.758 4.879-19.248 4.76-19.248 4.76h-63.1s-9.52.119-19.248-4.76c-9.788-4.88-20.141-14.994-20.141-34.63V191.71c0-19.635 10.353-29.75 20.14-34.629 9.759-4.879 19.249-4.76 19.249-4.76zm0 15.768s-6.247.059-12.227 3.064c-6.01 2.975-11.394 8.627-11.394 20.527v157.735c0 11.989 5.384 17.552 11.394 20.527 6.01 3.005 12.227 3.094 12.227 3.094h63.07s6.247-.089 12.227-3.094c6.01-2.975 11.395-8.568 11.395-20.527v-86.781H254.81c-17.314 0-31.535-14.161-31.535-31.476 0-17.314 14.22-31.535 31.535-31.535h55.157v-7.943c0-11.96-5.385-17.552-11.395-20.527-6.01-2.975-12.197-3.065-12.197-3.065zm31.535 47.302a15.649 15.649 0 0 0-15.768 15.768c0 8.806 6.962 15.708 15.768 15.708h102.489c8.806 0 15.767-6.902 15.767-15.708A15.649 15.649 0 0 0 357.3 215.42zm0 63.01a23.8 23.8 0 0 1 23.622 23.711 23.681 23.681 0 0 1-15.768 22.164v17.225c0 10.502-15.767 10.502-15.767 0v-17.255a23.681 23.681 0 0 1-15.708-22.134 23.8 23.8 0 0 1 23.621-23.71zm0 15.768a7.824 7.824 0 0 0-7.914 7.943 7.735 7.735 0 0 0 7.914 7.824 7.735 7.735 0 0 0 7.854-7.824 7.765 7.765 0 0 0-7.854-7.943zm-204.68 126.2h409.955s6.218.059 12.198 3.064c6.039 2.975 11.424 8.538 11.424 20.527v15.797c0 12.079-5.385 17.553-11.395 20.528-6.01 3.005-12.227 3.094-12.227 3.094H50.13s-6.248-.09-12.257-3.094c-6.01-2.975-11.424-8.687-11.424-20.527V444.02c0-11.81 5.414-17.552 11.424-20.557 6.01-2.975 12.257-3.064 12.257-3.064z"/></svg>