<svg xmlns="http://www.w3.org/2000/svg" viewBox="0 0 512 512"><path d="M.12 512h210.901V391.057H.12V512zm46.126-89.624h119.648v29.986H46.246v-29.986zM.12 361.071h210.901V242.127H.12v118.944zm46.126-87.038h119.648v29.986H46.246v-29.986zM241.007 512H511.88V242.127H241.007V512zm179.916-237.967h29.986v30.726h-29.986v-30.726zm-59.972 0h29.986v30.726h-29.986v-30.726zm-59.972 0h29.986v30.726h-29.986v-30.726zm0 57.552h149.93v120.444h-149.93V331.585zM420.923 69.131V0h-89.958v69.181l-89.958 59.971v53.003H511.88v-53.053z"/></svg>