<svg xmlns="http://www.w3.org/2000/svg" viewBox="0 0 512 512"><path d="M399.1 0H112.9C92 0 75 17 75 37.9V108h362V37.9C437 17 420 0 399.1 0zM167 89h-27.7c-16.5 0-30-13.5-30-30 0-2.8 2.2-5 5-5H192c2.8 0 5 2.2 5 5 0 16.5-13.5 30-30 30zm89-10c-11 0-20-9-20-20 0-9.3 6.4-17.2 15-19.4V51h10V39.6c8.6 2.2 15 10.1 15 19.4 0 11-9 20-20 20zm157-7c0 2.8-2.2 5-5 5h-95c-2.8 0-5-2.2-5-5V47c0-2.8 2.2-5 5-5h95c2.8 0 5 2.2 5 5zM139.3 79H167c9.3 0 17.1-6.4 19.4-15H120c2.2 8.6 10 15 19.3 15zM318 52h84v15h-84zM256 150.7c-65.8 0-119.3 53.5-119.3 119.3S190.2 389.3 256 389.3 375.3 335.8 375.3 270 321.8 150.7 256 150.7zm91.7 94.3c-.9 1.3-2.4 2-4 2h-10.3c-4.6 0-8.3 3.7-8.3 8.3v29.3c0 4.6 3.7 8.3 8.3 8.3h10.3c1.6 0 3.1.8 4 2s1.2 3 .7 4.5c-12.9 40.4-50 67.5-92.4 67.5-53.5 0-97-43.5-97-97s43.5-97 97-97c42.4 0 79.5 27.1 92.4 67.5.5 1.6.2 3.3-.7 4.6zM315 287v-10h-1.5c-6.1 0-11.8-2.4-16.1-6.7l-6.7-6.7c-6.2-6.2-14.4-9.6-23.2-9.6s-17 3.4-23.2 9.6l-6.7 6.7c-4.3 4.3-10 6.7-16.1 6.7s-11.8-2.4-16.1-6.7l-6.7-6.7c-6.2-6.2-14.4-9.6-23.2-9.6h-5c-.6 3.3-1 6.6-1.3 10-.1 2-.2 4-.2 6 0 48 39 87 87 87 35.7 0 67.2-21.4 80.5-54h-3.2c-.5 0-2.8-.2-3.1-.3-.2 0-1.5-.3-1.9-.4-7.1-2-12.5-8-13.3-15.3zM85 420H75v12.1C75 453 92 470 112.9 470H123v37c0 2.8 2.2 5 5 5h30c2.8 0 5-2.2 5-5v-37h186v37c0 2.8 2.2 5 5 5h30c2.8 0 5-2.2 5-5v-37h10.1c20.9 0 37.9-17 37.9-37.9V420h-10zM85 118H75v292h362V118h-10zm171 281.3c-71.3 0-129.3-58-129.3-129.3s58-129.3 129.3-129.3 129.3 58 129.3 129.3-58 129.3-129.3 129.3z"/></svg>