<svg xmlns="http://www.w3.org/2000/svg" viewBox="0 0 512 512"><path d="M177.525 72.994c-3.006.355-5.901-1.096-7.548-3.635C161.058 55.608 145.572 46.5 128 46.5h-3.67c-27.843 0-50.291 22.555-50.25 50.31l.41 336.69h8.238c4.262 0 7.982 3.218 8.255 7.471A7.999 7.999 0 0183 449.5H8.272c-4.262 0-7.982-3.218-8.255-7.471A7.999 7.999 0 018 433.5h50.49l-.41-336.67C58.039 60.2 87.661 30.5 124.33 30.5H128c23.309 0 43.838 12.148 55.585 30.442 2.973 4.631.459 11.281-6.06 12.052zM186 88.5c-30.88 0-56 25.12-56 56v14c0 4.42 3.58 8 8 8h96c4.42 0 8-3.58 8-8v-14c0-30.88-25.12-56-56-56zm194.059 352.766c-.214-7.007-.079-22.009-.061-58.76a8.002 8.002 0 00-8-8.006H214.002a8.002 8.002 0 00-8 8.006c.019 36.755.154 51.755-.06 58.761-.138 4.51 3.484 8.234 7.996 8.234h158.125c4.512-.001 8.133-3.725 7.996-8.235zM444.13 308.5h-12.26c-19.78 0-35.87 16.09-35.87 35.87v97.13c0 4.42 3.58 8 8 8h40.13c19.78 0 35.87-16.09 35.87-35.87v-69.26c0-19.78-16.09-35.87-35.87-35.87zm-290 0h-12.26c-19.78 0-35.87 16.09-35.87 35.87v69.26c0 19.78 16.09 35.87 35.87 35.87H182c4.42 0 8-3.58 8-8v-97.13c0-19.78-16.09-35.87-35.87-35.87zm122.87-95h-94.16c-23.66 0-42.84 19.18-42.84 42.84v28.16a7.998 7.998 0 007.994 8l6.128.001c28.65 0 51.878 23.224 51.878 51.874v6.126a8 8 0 008 8h63a8 8 0 008-8v-129a8 8 0 00-8-8.001zm124.16 0H309a8 8 0 00-8 8v129a8 8 0 008 8h63a8 8 0 008-8v-6.13c0-28.576 23.243-51.87 51.87-51.87H436a8 8 0 008-8v-28.16c0-23.66-19.18-42.84-42.84-42.84z"/></svg>