<svg xmlns="http://www.w3.org/2000/svg" viewBox="0 0 512 512"><path d="M0 1.307v509.386h241V1.307zm184.246 444.628H54.507v-30h129.739zm-127.22-154.31c-.363-8.101 7.154-15 15-15 8.409 0 14.636 6.873 15 15 .363 8.101-7.154 15-15 15-8.41 0-14.636-6.873-15-15zm127.22-127.501H54.507v-30h129.739zM54.507 92.315v-30h129.739v30zM512 1.307H271v509.386h241zm-54.623 444.628H327.638v-30h129.739zm-127.221-154.31c-.363-8.101 7.154-15 15-15 8.409 0 14.636 6.873 15 15 .363 8.101-7.154 15-15 15-8.409 0-14.636-6.873-15-15zm127.221-127.501H327.638v-30h129.739zm0-71.809H327.638v-30h129.739z"/></svg>