<svg xmlns="http://www.w3.org/2000/svg" viewBox="0 0 512 512"><path d="M61.667 359.459v-.044l54.35-.132a197.178 197.178 0 01-23.284-28.649c-21.609-32.343-32.995-69.81-33.056-108.587l-57.794-23.89L.032 227c-1.019 52.218 22.46 100.763 61.635 132.459zM89.707 218.401c-1.09 55.821 25.82 107.439 69.967 138.77-12.245-32.027-18.381-66.765-17.878-101.952.512-35.816 7.889-70.908 21.496-102.919L91.56 119.49zM511.968 227l-1.852-28.843-57.794 23.89c-.065 38.791-11.451 76.25-33.055 108.587a197.058 197.058 0 01-23.284 28.649l54.35.132v.044c39.174-31.696 62.654-80.241 61.635-132.459zM420.441 119.49l-71.733 32.81c13.608 32.011 20.984 67.102 21.496 102.919.503 35.187-5.633 69.925-17.878 101.952 44.146-31.331 71.056-82.949 69.967-138.77zM195.158 363.814c25.775 7.888 47.426 25.296 60.842 48.107 13.417-22.811 35.068-40.219 60.843-48.107 33.257-69.367 30.971-154.561-6.382-221.539L256 46l-54.461 96.275c-37.353 66.978-39.639 152.172-6.381 221.539zM420.333 389.342L348 389.167c-42.269 0-76.658 34.388-76.658 76.657l72.334.176c42.269 0 76.657-34.388 76.657-76.658zM168.324 466l72.334-.176c0-42.269-34.389-76.657-76.658-76.657l-72.333.176c0 42.269 34.388 76.657 76.657 76.657z"/></svg>