<svg xmlns="http://www.w3.org/2000/svg" viewBox="0 0 512 512"><path fill="#030104" d="M162.53 166.166c1.676 7.71 4.246 12.7 7.244 15.809 7.131 49.64 51.689 91.945 87.476 90.176 45.526-2.234 77.795-51.298 85.038-90.176 2.998-3.091 5.884-9.701 7.615-17.466 1.937-8.919 4.022-22.362-1.34-29.475a70.495 70.495 0 00-2.719-2.57c5.12-18.47 16.367-51.428-11.637-81.053-15.176-16.05-36.253-24.113-55.302-30.48-56.232-18.788-95.93 7.56-114.252 51.372-1.322 3.11-9.869 22.79.484 60.161a10.613 10.613 0 00-2.681 2.57c-5.381 7.094-1.88 22.213.074 31.132zm290.786 272.892c-1.564-34.167-3.5-88.314-33.348-132.611 0 0-8.51-11.6-28.694-19.31 0 0-43.831-13.35-64.015-27.78l-9.217 6.312 1.024 59.92-55.339 147.73a8.267 8.267 0 01-15.492 0l-55.32-147.73s1.025-59.734 1.006-59.92c.13.503-9.236-6.312-9.236-6.312-20.146 14.43-63.997 27.78-63.997 27.78-20.184 7.71-28.693 19.31-28.693 19.31-29.83 44.297-31.803 98.444-33.367 132.611-1.08 23.61 3.873 32.418 10.092 34.932 77.199 30.983 297.268 30.983 374.485 0 6.257-2.496 11.172-11.321 10.111-34.932zM257.951 291.236l-2.495.055c-8.044 0-16.162-1.564-24.131-4.32l21.934 33.572-19.681 18.993 20.258 123.022a2.197 2.197 0 004.32 0l20.259-123.022-19.7-18.993 21.618-33.069c-7.057 2.067-14.524 3.445-22.382 3.762z"/></svg>