<svg xmlns="http://www.w3.org/2000/svg" viewBox="0 0 512 512"><path d="M254.223 174.787c28.028 0 50.832-22.803 50.832-50.831 0-28.028-22.804-50.831-50.832-50.831-28.021 0-50.817 22.803-50.817 50.831 0 28.028 22.796 50.831 50.817 50.831zM454.05 48.595c0-6.247-5.018-11.314-11.241-11.409V24.262c0-8.616-7.009-15.625-15.623-15.625-2.43 0-4.721.573-6.773 1.566C417.081 4.129 410.625 0 403.223 0c-10.803 0-19.594 8.79-19.594 19.593v17.584h-10.555c-2.689-8.588-10.721-14.838-20.184-14.838-9.464 0-17.494 6.25-20.184 14.838H175.751c-2.689-8.588-10.72-14.838-20.184-14.838-9.462 0-17.492 6.25-20.182 14.838H124.83V19.593C124.831 8.79 116.041 0 105.239 0 97.836 0 91.382 4.129 88.05 10.203a15.511 15.511 0 00-6.774-1.566c-8.614 0-15.624 7.01-15.624 15.625v12.923c-6.224.095-11.242 5.163-11.242 11.41s5.019 11.313 11.241 11.408v12.923c0 8.615 7.01 15.624 15.624 15.624 2.429 0 4.721-.573 6.772-1.565 3.334 6.073 9.788 10.202 17.191 10.202 10.803 0 19.592-8.789 19.592-19.592V60.012h9.593v83.715c0 10.401 5.017 22.918 12.196 30.437l46.121 48.298v260.332c0 14.152 11.514 25.667 25.666 25.667 14.153 0 25.667-11.515 25.667-25.667V354.518h20.255v128.103c0 14.152 11.514 25.666 25.666 25.666 14.152 0 25.665-11.514 25.665-25.666l.06-260.159 46.123-48.299c7.18-7.521 12.195-20.038 12.195-30.437V60.012h9.592v17.581c0 10.804 8.791 19.594 19.594 19.594 7.402 0 13.856-4.129 17.189-10.203a15.504 15.504 0 006.773 1.566c8.614 0 15.623-7.009 15.623-15.624V60.003c6.224-.095 11.242-5.161 11.242-11.408zm-122.305 94.686c-.121.517-.533 1.541-.804 2.003l-39.964 41.853h-73.494l-39.965-41.854c-.271-.46-.684-1.484-.805-2.002v-83.27h155.031v83.27z"/></svg>