<svg xmlns="http://www.w3.org/2000/svg" viewBox="0 0 512 512"><path d="M120.471 360.961v-123.79c0-11.562-12.491-18.811-22.53-13.075l-52.706 30.118a15.06 15.06 0 00-7.588 13.075v185.627l-11.94 13.256C16.221 475.658 0 468.939 0 455.523V56.465c0-11.055 11.515-18.342 21.506-13.61l129.083 66.315v218.353zm-52.706 58.517v-143.45l22.588-12.908V394.4zm406.588 33.437V267.288a15.06 15.06 0 00-7.588-13.075l-52.706-30.118c-10.039-5.737-22.53 1.512-22.53 13.075v123.791l-30.118-33.438V109.171l129.083-66.315C500.485 38.123 512 45.41 512 56.465v399.059c0 13.416-16.221 20.135-25.707 10.648zm-30.118-33.437L421.647 394.4V263.12l22.588 12.908zm-135.529-91.955V214.582c0-8.317-6.742-15.059-15.059-15.059h-75.294c-8.317 0-15.059 6.742-15.059 15.059v112.941h-30.118V109.171h165.647v218.353h-30.117zm-30.118 0h-45.176v-97.882h45.176z"/></svg>