<svg xmlns="http://www.w3.org/2000/svg" viewBox="0 0 512 512"><path d="m495.473 62.104-20.16-20.156c-21.562-21.681-56.072-23.424-79.71-4.028L129.591 255.04l-.85-.73a25.018 25.018 0 0 0-32.168-.308l-67.43 55.43c-17.788 14.623-21.322 40.812-8.046 59.622l75.12 106.46a24.033 24.033 0 0 0 16.38 9.942c1.06.14 2.125.211 3.183.211.221 0 .436-.05.663-.06a17.395 17.395 0 0 0 1.49-.128c4.757-.43 9.356-2.189 13.094-5.264l74.592-61.316a25.01 25.01 0 0 0 7.501-28.258v.006l-10.886-28.583 15.489-14.612a5.376 5.376 0 0 0 1-6.543c-3.022-5.388-2.112-12.163 2.204-16.487 4.324-4.32 11.105-5.228 16.49-2.206a5.364 5.364 0 0 0 6.431-.887l12.378-12.373a5.376 5.376 0 0 0 .887-6.432c-3.027-5.39-2.12-12.169 2.205-16.492 4.312-4.33 11.1-5.232 16.483-2.2a5.399 5.399 0 0 0 6.436-.888l12.374-12.372a5.376 5.376 0 0 0 .887-6.432c-3.022-5.39-2.118-12.165 2.204-16.49 4.32-4.312 11.094-5.226 16.49-2.203a5.391 5.391 0 0 0 6.431-.887l12.373-12.375a5.376 5.376 0 0 0 .887-6.432c-3.022-5.387-2.118-12.163 2.204-16.487 4.32-4.318 11.096-5.226 16.489-2.204a5.386 5.386 0 0 0 6.432-.887L371.38 193.8a5.376 5.376 0 0 0 .887-6.432c-3.022-5.387-2.117-12.163 2.206-16.487 4.322-4.327 11.104-5.226 16.487-2.204a5.395 5.395 0 0 0 6.432-.887l12.373-12.38a5.368 5.368 0 0 0 .887-6.432c-3.022-5.387-2.118-12.163 2.206-16.487s11.103-5.232 16.487-2.204a5.386 5.386 0 0 0 6.432-.887l12.373-12.38a5.368 5.368 0 0 0 .887-6.432c-3.022-5.388-2.118-12.164 2.206-16.487 4.324-4.328 11.097-5.232 16.487-2.205a5.386 5.386 0 0 0 6.432-.887l21.294-21.3a5.364 5.364 0 0 0 .018-7.603zM130.222 324.349a44.882 44.882 0 0 1 12.61 17.664l16.328 41.403a12.11 12.11 0 0 1-3.577 13.805l-24.248 19.935c-8.469 6.964-21.095 5.119-27.22-3.969l-22.656-33.61c-11.186-16.596-7.922-38.975 7.538-51.69l15.274-12.556a12.115 12.115 0 0 1 15.561.146zm-15.213-65.063c-.499-.063-.994-.117-1.495-.144.499.038 1 .054 1.495.144zm-2.388-.219c-.854-.006-1.709.09-2.56.192a14.035 14.035 0 0 1 2.416-.21c.048 0 .096.018.144.018zM448.596 369.44l-79.156 79.158 50.872 20.38 48.667-48.666zm24.7 61.767-42.095 42.096 58.47 23.366a5.38 5.38 0 0 0 6.996-6.99zM53.377 135.152l81.776-81.776-23.366-23.367c-10.921-10.92-25.44-16.938-40.89-16.938S40.932 19.088 30.01 30.01c-10.92 10.923-16.94 25.44-16.94 40.885s6.017 29.969 16.934 40.89zm256.072 92.521-54.292-54.292-90.052 73.5 58.374 58.374c4.506-1.103 9.243-1.21 13.82-.179l2.669-2.661c-2.233-9.842.595-20.435 7.947-27.783 7.334-7.359 17.902-10.183 27.78-7.95l2.661-2.663c-2.23-9.846.597-20.43 7.95-27.775 6.199-6.205 14.716-9.137 23.143-8.57zm-77.242-77.207-89.43-89.48-81.792 81.792 81.201 81.147zm99.823 105.496c-5.376 5.378-13.139 7.417-20.339 5.67 1.748 7.162-.284 14.95-5.677 20.343l-12.369 12.378c-5.399 5.383-13.17 7.4-20.344 5.673 1.747 7.175-.284 14.961-5.683 20.35l-12.369 12.367a21.308 21.308 0 0 1-2.302 1.991l107.568 107.56 81.78-81.78L334.89 253.11z"/></svg>