<svg xmlns="http://www.w3.org/2000/svg" viewBox="0 0 512 512"><path d="M16 296.013h368c8.837 0 16 7.163 16 16v40c0 8.837-7.163 16-16 16H16c-8.837 0-16-7.163-16-16v-40c0-8.836 7.163-16 16-16zM512 16.022c0 72.114.155 66.992-.28 66.992-1.4 7.4-7.9 13-15.72 13H296c-20.86 0-38.64 13.38-45.25 32h4.51c66.683 0 120.74 54.057 120.74 120.74v10.26a5 5 0 01-5 5H29a5 5 0 01-5-5v-10.26c0-66.683 54.057-120.74 120.74-120.74h8.15c7.99-71.9 69.12-128 143.11-128h199.996C504.835.014 512 7.183 512 16.022zM200 384.013c-8.836 0-16 7.164-16 16v23c0 8.836 7.164 16 16 16s16-7.164 16-16v-23c0-8.836-7.164-16-16-16zM296 384.013c-8.836 0-16 7.164-16 16v23c0 8.836 7.164 16 16 16s16-7.164 16-16v-23c0-8.836-7.164-16-16-16zM248 457.013c-8.836 0-16 7.164-16 16v23c0 8.836 7.164 16 16 16s16-7.164 16-16v-23c0-8.836-7.164-16-16-16zM352 457.013c-8.836 0-16 7.164-16 16v23c0 8.836 7.164 16 16 16s16-7.164 16-16v-23c0-8.836-7.164-16-16-16zM104 384.013c-8.836 0-16 7.164-16 16v23c0 8.836 7.164 16 16 16s16-7.164 16-16v-23c0-8.836-7.164-16-16-16zM152 457.013c-8.836 0-16 7.164-16 16v23c0 8.836 7.164 16 16 16s16-7.164 16-16v-23c0-8.836-7.164-16-16-16zM56 457.013c-8.836 0-16 7.164-16 16v23c0 8.836 7.164 16 16 16s16-7.164 16-16v-23c0-8.836-7.164-16-16-16z"/></svg>