<svg xmlns="http://www.w3.org/2000/svg" viewBox="0 0 512 512"><path d="M23.3 264.79v109.206h130.524v-75.781l200.176.844v74.937h134.7V264.79zm0 0"/><path d="M354 403.996V482h-30V328.93l-54.16-.227V482h-30V328.578l-56.016-.234V482h-30v-78.004H23.301V482H0v30h512v-30h-23.3v-78.004zm0 0M258.105 70.93c0-4.055-2.464-6.52-7.628-6.52h-6.836v13.035h6.836c5.164 0 7.628-2.465 7.628-6.515zm0 0M311.68 68.387l-5.407 13.988h10.809zm0 0"/><path d="M269.84 204.79v-46.013h184.898V0H57.258v158.777H239.84v46.012H0v30h512v-30zm32.777-154.845h18.442l24.32 55.637h-19.395l-3.734-9.695h-21.145l-3.734 9.695h-19.074zm-113.183 56.91c-9.301 0-18.68-2.304-24.243-5.722l6.04-13.672c5.246 3.098 12.242 5.086 18.363 5.086 5.324 0 7.23-1.113 7.23-3.02 0-6.996-30.758-1.351-30.758-22.097 0-10.332 8.664-18.758 25.91-18.758 7.473 0 15.18 1.59 20.985 4.848l-5.645 13.593c-5.484-2.785-10.652-4.133-15.5-4.133-5.484 0-7.23 1.59-7.23 3.497 0 6.675 30.758 1.113 30.758 21.62 0 10.173-8.664 18.758-25.91 18.758zm35.449-56.91h26.785c15.5 0 25.355 8.106 25.355 20.985 0 12.875-9.855 20.98-25.355 20.98h-8.027v13.672h-18.758zm0 0"/></svg>