<svg xmlns="http://www.w3.org/2000/svg" viewBox="0 0 512 512"><path d="M495.496 402h-105v-45c0-8.285-6.715-15-15-15H270.5v-45c0-8.281-6.719-15-15-15h-105v-45c0-8.281-6.719-15-15-15h-120c-8.285 0-15 6.719-15 15v260c0 8.285 6.715 15 15 15h479.996c8.285 0 15-6.715 15-15v-80c0-8.285-6.715-15-15-15zm0 0"/><path d="M28.316 28.172L60.5 45.722V192h30V62.09l90 49.09V252h30V127.543l90 49.09V312h30V192.996l90 49.09V372h30V258.45l17.816 9.722a14.95 14.95 0 007.168 1.832c5.313 0 10.457-2.828 13.18-7.82 3.969-7.27 1.29-16.383-5.984-20.352L42.684 1.836C35.41-2.133 26.297.546 22.332 7.82c-3.969 7.274-1.289 16.383 5.984 20.352zm0 0"/></svg>