<svg xmlns="http://www.w3.org/2000/svg" viewBox="0 0 512 512"><path d="M442.603 186.387v67.425h-13.485v-67.425zM285.278 256.69v69.043h13.485v-75.965zm71.92-36.769v69.853h13.485v-76.775zm-143.84 73.449v68.323h13.485v-75.156zm-71.92 36.769v67.514h13.485v-74.347zm-71.92 36.769v66.705h13.485v-73.538zM489.8 123.457h-80.37a6.922 6.922 0 0 0-3.057.72l-387.11 197.78a6.742 6.742 0 0 0-2.966 8.99l16.092 32.274a6.922 6.922 0 0 0 3.955 3.326 5.304 5.304 0 0 0 2.068 0 7.282 7.282 0 0 0 3.057-.72l378.03-193.284H489.8a6.832 6.832 0 0 0 6.742-6.743v-35.6a6.832 6.832 0 0 0-6.742-6.742zm0 143.84h-71.92a6.832 6.832 0 0 0-6.742 6.743v29.218H345.96a6.832 6.832 0 0 0-6.742 6.742v29.218H274.04a6.832 6.832 0 0 0-6.742 6.742v29.218H202.12a6.832 6.832 0 0 0-6.742 6.742v29.218H130.2a6.832 6.832 0 0 0-6.742 6.742v29.218H58.28a6.832 6.832 0 0 0-6.742 6.742v35.96a6.832 6.832 0 0 0 6.742 6.742H489.8a6.832 6.832 0 0 0 6.742-6.742V274.04a6.832 6.832 0 0 0-6.742-6.742zM313.506 15.578h-58.705a5.484 5.484 0 0 0-5.483 5.484v58.705a5.483 5.483 0 0 0 5.483 5.484h58.705a5.484 5.484 0 0 0 5.484-5.484V21.061a5.484 5.484 0 0 0-5.484-5.484zM103.23 42.458a6.832 6.832 0 0 1 4.855-1.528 6.473 6.473 0 0 1 4.585 2.428l26.97 32.274 25.621-22.385a6.563 6.563 0 0 1 4.945-1.709 6.742 6.742 0 0 1 4.584 2.338l34.073 38.927V22.32a6.832 6.832 0 0 0-6.743-6.743H58.28a6.832 6.832 0 0 0-6.743 6.743v63.47zm65.897 25.352L148.36 85.79l27.6 32.994h26.16a6.653 6.653 0 0 0 6.563-5.934zm-62.48-10.608-55.11 46.029v8.99a6.832 6.832 0 0 0 6.743 6.742h100.059z"/></svg>