<svg xmlns="http://www.w3.org/2000/svg" viewBox="0 0 512 512"><path d="M146.645 109.31H45.288C20.822 109.31.82 129.214.697 153.677L0 292.109c-.052 10.407 8.342 18.885 18.747 18.938h.098c10.363 0 18.787-8.375 18.841-18.747l.696-138.432v-.047a3.738 3.738 0 017.474.044l.008 316.757c0 12.488 10.124 22.612 22.612 22.612s22.612-10.124 22.612-22.612V289.888h9.763v180.734c0 12.488 10.123 22.611 22.611 22.611s22.611-10.123 22.611-22.611c0-298.894-.4-127.966-.41-316.481a3.948 3.948 0 013.794-3.946 3.946 3.946 0 014.092 3.635v.002l-.128 138.354c-.01 10.406 8.419 18.851 18.825 18.861h.018c10.397 0 18.833-8.426 18.842-18.825l.128-138.431c.002-.039.002-.075.001-.114-.123-24.463-20.126-44.367-44.59-44.367z"/><circle cx="95.966" cy="57.813" r="39.047"/><path d="M510.941 262.849c-.346-.986-34.611-98.717-40.002-114.406-8.679-25.253-23.23-38.057-43.249-38.057h-65.153c-20.02 0-34.571 12.805-43.249 38.057-5.391 15.688-39.656 113.421-40.002 114.406-3.418 9.748 1.714 20.423 11.464 23.841 9.758 3.42 20.425-1.725 23.84-11.462 1.106-3.154 21.721-60.433 33.222-93.389-1.204 9.838 2.264-10.578-26.737 139.154-1.246 6.431 3.711 12.379 10.201 12.379h14.273V469.05c0 12.396 10.049 22.446 22.446 22.446 12.397 0 22.446-10.049 22.446-22.446V333.37h9.692v135.68c0 12.396 10.049 22.446 22.446 22.446 12.397 0 22.446-10.049 22.446-22.446V333.37h14.273c6.522 0 11.446-5.952 10.201-12.379-28.737-148.369-25.57-131.138-26.55-139.154a93919.952 93919.952 0 0032.691 93.389c3.421 9.756 14.101 14.878 23.84 11.462 9.747-3.418 14.879-14.091 11.461-23.839z"/><circle cx="395.283" cy="59.265" r="38.767"/><path d="M239.761 43.925c-7.969 0-14.43 6.46-14.43 14.43v395.282c0 7.969 6.46 14.429 14.43 14.429s14.43-6.459 14.43-14.429V58.355c0-7.97-6.461-14.43-14.43-14.43z"/></svg>