<svg xmlns="http://www.w3.org/2000/svg" viewBox="0 0 512 512"><path d="M487.976 94.288a8.425 8.425 0 0 0-8.4 8.4v52.752h-58.8c-1.428-55.104-18.144-98.532-41.832-112.392-56.28-25.687-75.961 72.458-74.928 119.868 1.109 45.654 6.82 78.347 28.224 107.772 24.125 31.298 58.094 14.507 71.82-18.648a213.511 213.511 0 0 0 16.8-79.8h67.116a8.375 8.375 0 0 0 8.4-8.4v-61.152a8.375 8.375 0 0 0-8.4-8.4zM364.832 200.716c-13.297.235-23.402-17.01-23.184-37.8-.52-45.52 41.48-51.811 45.528-7.476h-16.548a20.294 20.294 0 0 0-6.048-13.524c-4.662 2.318-7.812 23.1-5.208 30.324 1.428 7.14 4.284 11.256 5.628 11.676a20.007 20.007 0 0 0 5.292-11.676h16.8c-1.235 15.624-11.264 28.812-22.26 28.476zm-223.776 86.772h183.792c-29.72-33.348-36.456-77.717-37.632-124.572 1.184-46.72 7.904-91.24 37.632-124.572H141.056c-36.12 0-64.68 50.82-66.696 117.096-10.038-.017-32.147.008-42.336 0V92.608a8.4 8.4 0 0 0-16.8 0v71.232a8.425 8.425 0 0 0 8.4 8.4h50.82c3.192 62.723 27.241 113.266 66.612 115.248zm221.34 16.8c-13.44-.437-218.904.806-228.984-.504v61.152h28.896a8.4 8.4 0 1 1 0 16.8h-28.896v83.076a8.366 8.366 0 0 0 8.4 8.4l270.648-.84a8.425 8.425 0 0 0 8.4-8.4v-82.236c-7.3-.025-21.84.017-28.98 0a8.4 8.4 0 1 1 0-16.8h28.98v-110.04c-10.651 25.2-30.156 49.543-58.464 49.392zm-20.58 60.648h20.58a8.4 8.4 0 1 1 0 16.8h-20.58a8.4 8.4 0 1 1 0-16.8zm-49.98 0h20.58a8.4 8.4 0 1 1 0 16.8h-20.58a8.4 8.4 0 1 1 0-16.8zm-49.98 0h20.496a8.4 8.4 0 1 1 0 16.8h-20.496a8.4 8.4 0 1 1 0-16.8zm-50.064 0h20.58a8.4 8.4 0 1 1 0 16.8h-20.58a8.4 8.4 0 1 1 0-16.8z"/></svg>