<svg xmlns="http://www.w3.org/2000/svg" viewBox="0 0 512 512"><path d="M314.924 101.612H108.61a74.657 74.657 0 0 0-34.572 9.46c-40.386 22.291-60.028 77.744-60.028 123.84v98.9h8.6a8.6 8.6 0 1 1 0 17.2h-8.6V491.45l15.566-8.256a17.338 17.338 0 0 1 16.168 0l24.166 12.9 24.08-12.9a17.27 17.27 0 0 1 16.254 0l24.08 12.9 24.166-12.9a16.865 16.865 0 0 1 16.168 0l24.166 12.9 24.166-12.9a17.032 17.032 0 0 1 16.254 0l15.566 8.256V351.012h-17.2a8.6 8.6 0 1 1 0-17.2h17.2v-98.9c0-57.878 24.424-108.102 60.114-133.3zM82.81 351.012h-25.8a8.6 8.6 0 1 1 0-17.2h25.8a8.6 8.6 0 1 1 0 17.2zm60.2 0h-25.8a8.6 8.6 0 1 1 0-17.2h25.8a8.6 8.6 0 1 1 0 17.2zm60.2 0h-25.8a8.6 8.6 0 1 1 0-17.2h25.8a8.6 8.6 0 1 1 0 17.2zm167.7-51.6c-28.543 0-47.3-32.018-47.3-64.5 0-40.988 24.665-64.5 47.3-64.5 17.888 0 33.712 13.33 41.796 34.4h39.904v-25.198c-15.394-47.386-49.106-78.002-86-78.002-52.202 0-94.6 59.77-94.6 133.3s42.398 133.3 94.6 133.3c43.946 0 82.216-43.688 92.106-103.2h-46.01c-8.084 21.07-23.908 34.4-41.796 34.4zm-98.9 15.308v53.492h42.914a133.592 133.592 0 0 1-42.914-53.492zm75.852-109.908h46.096a27.898 27.898 0 0 0-23.048-17.2 27.898 27.898 0 0 0-23.048 17.2zm113.348-189.2h-361.2a34.4 34.4 0 0 0-34.4 34.4V95.85a93.397 93.397 0 0 1 25.8-9.546V58.612a17.252 17.252 0 0 1 17.2-17.2h344a17.252 17.252 0 0 1 17.2 17.2v146.2a17.252 17.252 0 0 1-17.2 17.2H342.1a65.145 65.145 0 0 0 0 25.8h119.11a34.4 34.4 0 0 0 34.4-34.4v-163.4a34.4 34.4 0 0 0-34.4-34.4zm-67.252 249.4h-46.096a27.898 27.898 0 0 0 23.048 17.2 27.898 27.898 0 0 0 23.048-17.2z"/></svg>