<svg xmlns="http://www.w3.org/2000/svg" viewBox="0 0 512 512"><path d="M326.36 489.654a16.851 16.851 0 004.51-12.86l-2.247-30.437a187.632 187.632 0 01-145.18 0l-2.263 30.436a17.08 17.08 0 0017.037 18.327H313.85a16.866 16.866 0 0012.511-5.466zm65.024-122.42c-28.814 20.607-78.133 33.946-135.35 33.946-57.219 0-106.537-13.34-135.351-33.947 21.008 44.759 73.683 76.647 135.35 76.647s114.342-31.888 135.35-76.646zM119.394 256h18.3c-2.135-4.637-4.27-9.3-5.978-14.176a204.892 204.892 0 01-12.323-70.882c0-63 15.902-103.07 37.516-128.442h-37.516a25.62 25.62 0 00-25.62 25.62v162.26a25.62 25.62 0 0025.62 25.62zm136.64-239.12c-76.007 0-119.56 56.193-119.56 154.062a186.351 186.351 0 0011.272 64.989 163.138 163.138 0 0012.298 26.132 298.9 298.9 0 0195.99-14.603 298.9 298.9 0 0195.989 14.603 173.123 173.123 0 0012.297-26.047 187.18 187.18 0 0011.273-65.074c0-97.869-43.554-154.062-119.56-154.062zm0 34.16c-56.706 0-85.4 40.309-85.4 119.902a8.54 8.54 0 01-17.08 0c0-88.304 36.38-136.982 102.48-136.982a8.54 8.54 0 010 17.08z"/><ellipse rx="10" ry="2.5" transform="matrix(8.54 0 0 8.54 256 320.06)"/><path d="M354.21 280.756a6.738 6.738 0 01-2.818-1.11c-.086 0-.086-.086-.171-.086A280.112 280.112 0 00256 264.53c-86.852 0-145.18 30.915-145.18 59.78s58.328 59.78 145.18 59.78 145.18-30.915 145.18-59.78c0-15.714-17.336-31.94-46.97-43.554zM256 358.47c-49.361 0-102.48-12.041-102.48-38.43s53.119-38.43 102.48-38.43 102.48 12.041 102.48 38.43-53.119 38.43-102.48 38.43zm124.334-116.614a171.996 171.996 0 01-5.859 14.134h18.165a25.62 25.62 0 0025.62-25.62V68.11a25.62 25.62 0 00-25.62-25.62h-37.516c21.615 25.372 37.516 65.442 37.516 128.442a204.96 204.96 0 01-12.306 70.924z"/></svg>