<svg xmlns="http://www.w3.org/2000/svg" viewBox="0 0 512 512"><path d="M193.108 322.597a20.818 20.818 0 00-2.875-9.329l1.217-.23-18.584-97.397a27.998 27.998 0 01-6.307-2.273 27.65 27.65 0 01-13.475 12.475l-67.102 29.145L99.991 328.9l-9.988 161.083c-.716 11.543 8.062 21.481 19.605 22.197.442.027.88.041 1.316.041 10.973 0 20.193-8.544 20.881-19.646l10.379-167.386c.059-.95.031-1.883-.035-2.807l9.388-1.779a21.01 21.01 0 00-.23 4.586l10.379 167.386c.688 11.102 9.907 19.646 20.881 19.646.436 0 .875-.014 1.316-.041 11.543-.716 20.321-10.653 19.604-22.197zM158.025 193.411c-3.84-8.84-14.119-12.894-22.959-9.055l-6.473 2.811-.064.08-12.943 5.478.379-.072-26.467 11.495 3.362-7.116.099-.019-.116-.073 34.514-22.15c.651-4.372 2.673-8.993 3.066-9.863l-.023-.032c2.652-4.68 6.566-8.677 11.512-11.359a29.706 29.706 0 0112.721-3.559c3.503-4.769 8.516-8.238 14.299-9.858a26.291 26.291 0 013.457-.72l11.597-51.911a17.445 17.445 0 00-2.665-13.711L135.649 7.545c-5.471-7.933-16.338-9.93-24.274-4.459-7.934 5.471-9.93 16.339-4.459 24.273l41.346 59.957-.064.29a48.17 48.17 0 016.101 15.955c4.958 26.161-12.291 51.478-38.453 56.437-2.98.565-6.019.852-9.033.852-2.583 0-5.123-.217-7.609-.614-.206-.033-.414-.061-.619-.097.073.06.14.125.212.186l.056.049-21.223 4.023a17.449 17.449 0 00-12.529 9.691l-26.972 57.09A17.453 17.453 0 0060.86 254.64l88.11-38.269c8.84-3.841 12.894-14.12 9.055-22.96zM172.204 151.791c-3.683 1.032-6.559 3.319-8.382 6.216-1.58 2.512-4.3 4.065-7.257 4.065-.06 0-.12 0-.181-.002a17.39 17.39 0 00-8.692 2.121c-3.52 1.91-6.146 4.949-7.655 8.462 11.428-.816 22.636 5.538 27.46 16.644a27.657 27.657 0 012.289 11.878 15.843 15.843 0 009.343 3.063c2.778 0 5.605-.734 8.196-2.299 6.069-3.666 8.957-11.134 6.932-17.928a15.775 15.775 0 00-3.153-5.804c-1.894-2.205-2.313-5.253-1.402-8.013 1.31-3.969.91-8.516-1.67-12.466-2.666-4.082-7.279-6.457-12.029-6.457a14.008 14.008 0 00-3.799.52zM208.833 163.993c-3.766 1.666-6.132 5.18-6.52 9.003a11.002 11.002 0 004.121 9.76c3.115 2.469 7.456 3.175 11.343 1.456 5.583-2.47 8.107-8.998 5.638-14.581-2.47-5.584-8.998-8.107-14.582-5.638zM201.688 158.995a8.395 8.395 0 001.754-.55 8.368 8.368 0 10-9.996-12.782 8.365 8.365 0 00-1.04 8.514c1.614 3.652 5.523 5.569 9.282 4.818zM220.938 140.019c-3.055 1.352-4.436 4.924-3.085 7.979s4.923 4.436 7.978 3.084a6.05 6.05 0 00-4.893-11.063zM106.813 148.727c2.233 0 4.501-.208 6.775-.64 19.626-3.72 32.52-22.645 28.8-42.27-3.289-17.351-18.46-29.44-35.495-29.439-2.233 0-4.501.208-6.775.639-19.625 3.72-32.52 22.645-28.8 42.271 3.289 17.35 18.46 29.439 35.495 29.439zM406.366 22.307h-31.102L331.619 4.296c-5.306-2.189-11.195 1.672-11.221 7.412-.115 25.083 8.76 46.428 26.624 64.036 4.088 4.029 10.979 2.577 13.168-2.729l13.498-32.708h32.678c27.963 0 51.399 22.681 51.399 51.399v92.822h-11.61v-2.359c0-4.971-4.029-9-9-9s-9 4.029-9 9v22.718c0 4.971 4.029 9 9 9s9-4.029 9-9v-2.359h11.61v272.634c0 10.509-8.55 19.059-19.059 19.059H350.33a9 9 0 000 18h88.376c20.435 0 37.059-16.625 37.059-37.059V91.706c0-38.718-31.578-69.399-69.399-69.399zM297.601 96.861l-8.35 8.619a6 6 0 00.135 8.484 6 6 0 008.484-.134l8.35-8.619a6 6 0 00-.135-8.484 6 6 0 00-8.484.134zM275.334 119.845l-7.539 7.782a6 6 0 00.135 8.484 6 6 0 008.484-.134l7.539-7.782a6 6 0 00-.135-8.484 5.998 5.998 0 00-8.484.134zM319.867 73.878l-8.35 8.619a6 6 0 00.135 8.484 6 6 0 008.484-.134l8.35-8.619a6 6 0 00-.135-8.484 6 6 0 00-8.484.134zM295.538 58.693a6.003 6.003 0 007.973 2.906l10.878-5.066a6 6 0 10-5.067-10.878l-10.878 5.066a6.002 6.002 0 00-2.906 7.972zM251.307 72.676l-10.878 5.066a6 6 0 105.067 10.878l10.878-5.066a6 6 0 10-5.067-10.878zM288.287 62.071a6 6 0 00-7.973-2.906l-10.878 5.066a6 6 0 105.067 10.878l10.878-5.066a6 6 0 002.906-7.972zM254.943 34.39l11.897-1.563a6 6 0 10-1.564-11.897l-11.897 1.563a6 6 0 001.564 11.897zM240.281 30.265a6.007 6.007 0 00-6.73-5.167l-11.898 1.563a6 6 0 101.562 11.897l11.898-1.563a6 6 0 005.168-6.73zM286.67 30.22l11.897-1.563a6 6 0 00-1.564-11.898l-11.897 1.563a6 6 0 101.564 11.898z"/></svg>