<svg height="512" viewBox="0 0 60 60" width="512" xmlns="http://www.w3.org/2000/svg"><path d="M56 11a1 1 0 001-1V3a1 1 0 00-1-1h-7a1 1 0 000 2h1.76a1 1 0 01.618 1.786l-40 31.43a1.009 1.009 0 00-.16 1.409 1.029 1.029 0 001.4.158L53.382 6.754A1 1 0 0155 7.54V10a1 1 0 001 1zM11.833 15.991h4.18a1.02 1.02 0 01.974 1.223l-1.4 6.2a.468.468 0 00.851.354l6.57-10.216a1 1 0 00-.84-1.541h-4.18a1.013 1.013 0 01-.974-1.223c0-.017.817-3.61 1.4-6.195a.468.468 0 00-.851-.354l-6.57 10.211a1 1 0 00.84 1.541zM17 46a1 1 0 00-1-1h-4a1 1 0 00-1 1v8h6zM24 38a1 1 0 00-1 1v15h6V39a1 1 0 00-1-1zM36 33a1 1 0 00-1 1v20h6V34a1 1 0 00-1-1zM48 25a1 1 0 00-1 1v28h6V26a1 1 0 00-1-1z"/><path d="M5 58h52a.983.983 0 00.708-.338 1.033 1.033 0 00.292-.754A1.083 1.083 0 0056.89 56H6a2 2 0 01-2-2V3a.982.982 0 00-.338-.71A1.046 1.046 0 002.974 2h-.065A1.083 1.083 0 002 3.111V55a3 3 0 003 3z"/></svg>