<svg xmlns="http://www.w3.org/2000/svg" viewBox="0 0 512 512"><path d="M152.413 7.396c-34.313 0-62.151 27.8-62.151 62.151 0 34.313 27.838 62.151 62.151 62.151s62.151-27.838 62.151-62.151c0-34.351-27.838-62.151-62.151-62.151zm-5.501 387.058L36.687 504.604 7.396 475.307l110.213-110.176zm-98.08-76.303h41.436V273.16l41.43-41.436v103.588l82.866 82.866v86.426H256v-82.866c0-11.392-6.601-27.321-14.649-35.364l-68.217-68.267V173.134h-41.436l-68.223 68.217c-8.049 8.055-14.649 23.953-14.649 35.364zm219.307 8.577 29.298-29.292-93.227-93.227v58.59zM256 7.396v190.015l100.026 100.026-58.59 58.59v148.577h207.168V7.396zm186.453 269.32a20.715 20.715 0 1 1-.715-41.424 20.715 20.715 0 0 1 .715 41.424z"/></svg>