<svg xmlns="http://www.w3.org/2000/svg" viewBox="0 0 512 512"><path d="M58.612 103.222h396.776V31.973A33.038 33.038 0 00424.3-.971H87.7a33.045 33.045 0 00-31.088 32.944v71.249zm-2 16v335.116a33.04 33.04 0 0033 33H101.7a6.934 6.934 0 00.25.982l6.209 19.126a8 8 0 007.61 5.524h40.209a8.005 8.005 0 007.61-5.524l6.213-19.126a8.2 8.2 0 00.246-.982h171.9a9.3 9.3 0 00.25.982l6.208 19.126a8.006 8.006 0 007.615 5.524h40.21a8 8 0 007.609-5.524l6.209-19.126a7.366 7.366 0 00.25-.982h12.092a33.035 33.035 0 0033-33V119.219H56.612zm233.9 167.746v29a8 8 0 01-16 0v-29a8 8 0 0116 0zm91.746 14.5A126.26 126.26 0 11256 175.2a126.4 126.4 0 01126.257 126.263zM256 191.2a110.1 110.1 0 0186.071 41.427l-23.8 7.737A86.449 86.449 0 00256 214.2a87.263 87.263 0 1062.28 148.37l23.791 7.728A110.24 110.24 0 11256 191.2zm0 39a70.5 70.5 0 0145.569 16.484 8 8 0 00-2.378 5.685v98.186a7.974 7.974 0 002.369 5.671A71.252 71.252 0 11256 230.2zm59.19 114.543v-86.561l36.3-11.794a110.057 110.057 0 010 110.151l-36.3-11.795zM310.637 59.1a8 8 0 018-8h85.453a8 8 0 010 16h-85.452a8 8 0 01-8-8zm-87.859 0a23.5 23.5 0 1123.5 23.5 23.527 23.527 0 01-23.5-23.5zm23.5 7.5a7.5 7.5 0 117.5-7.5 7.505 7.505 0 01-7.5 7.5zm-84.944-7.5a23.5 23.5 0 1123.5 23.5 23.536 23.536 0 01-23.5-23.5zm23.5 7.5a7.5 7.5 0 117.5-7.5 7.512 7.512 0 01-7.5 7.5zm-84.927-7.5a23.5 23.5 0 1123.5 23.5 23.536 23.536 0 01-23.5-23.5zm31 0a7.5 7.5 0 11-7.5-7.5 7.5 7.5 0 017.501 7.5z" fill-rule="evenodd"/></svg>