<svg xmlns="http://www.w3.org/2000/svg" viewBox="0 0 512 512"><path d="M408 0H104C77.49 0 56 21.49 56 48v43a5 5 0 005 5h390a5 5 0 005-5V48c0-26.51-21.49-48-48-48zm-88 64h-8c-8.84 0-16-7.16-16-16s7.16-16 16-16h8c8.84 0 16 7.16 16 16s-7.16 16-16 16zm64 0h-8c-8.84 0-16-7.16-16-16s7.16-16 16-16h8c8.84 0 16 7.16 16 16s-7.16 16-16 16zM56 133v363c0 8.837 7.163 16 16 16h368c8.837 0 16-7.163 16-16V133a5 5 0 00-5-5H61a5 5 0 00-5 5zm200 43c70.51 0 127.89 57.31 128 127.8.82 68.68-56.08 128.2-128 128.2-71.29 0-128.12-58.28-128-128.01C128 233.42 185.42 176 256 176zM256 400c41.471 0 76.876-26.43 90.271-63.321 1.352-3.724-1.969-7.49-5.826-6.583-11.295 2.654-21.441 3.775-30.685 3.775-61.032 0-76.026-44.399-145.308-20.635a5.003 5.003 0 00-3.318 5.481C168.238 364.689 208.067 400 256 400zM262.3 289.29c24.003 10.285 45.064 19.293 85.25 5.476a5.004 5.004 0 003.316-5.48C343.762 243.312 303.933 208 256 208c-41.461 0-76.865 26.421-90.269 63.31-1.358 3.737 1.985 7.484 5.855 6.576 41.416-9.716 67.32 1.379 90.714 11.404z"/></svg>