<svg xmlns="http://www.w3.org/2000/svg" viewBox="0 0 512 512"><path d="M98.63 101.15c-.4-3.17-1-8.08-1-8.08-.49-3.94-2.77-7.29-6.11-8.96L77.1 76.87c2.05-4 6.5-8.02 9.08-10.14 2.81-2.3 4.69-5.48 5.3-8.95.51-3.02-.05-5.2-1.69-6.49-2.44-1.92-2.44-11.12-1.86-16.55.01-.34.15-8.36-4.46-12.18-3.21-2.65-6.38-2.04-8.24-1.01-1.39-2.03-5.87-5.53-19.69-2.73-12.21 2.48-15.75 11.31-16.77 16.35-.44 2.19-.44 4.56-.02 7.05.27 1.54.3 3.69-1.13 5.18-1.84 1.92-3.4 6.21-2.84 10.69.37 3.06 1.91 7.39 7.07 10.64 4.9 3.08 7.44 6.09 8.74 8.3l-14.11 7.08c-3.34 1.67-5.62 5.02-6.11 8.96 0 0-.6 4.91-1 8.08-.24 2.01.72 3.99 2.46 5.06 10.54 6.42 21.36 9.7 32.17 9.74 10.81-.04 21.63-3.32 32.17-9.74a5.225 5.225 0 002.46-5.06zM54.3 23.19c1.98-.88 3.41-1.23 3.47-1.25.53-.12 1.07.21 1.2.74.13.54-.2 1.08-.73 1.21-.02 0-1.33.32-3.12 1.13-.49.21-1.11-.01-1.32-.51a1 1 0 01.5-1.32zm-3.12 1.66c.47-.29 1.08-.15 1.38.32.29.47.14 1.08-.32 1.38-3.64 2.26-8.01 6.47-8.24 13.65-.02.54-.46.97-1 .97h-.03c-.55-.02-.99-.48-.97-1.03.25-8.07 5.13-12.77 9.18-15.29zm12.78 64.59c-5.49 0-9.97-5.2-10.28-11.84 1.87-1.4 3.01-3.84 3.67-6.04 2.07.95 4.32 1.65 6.63 1.77h.1c2.29-.12 4.53-.81 6.57-1.74.67 2.19 1.8 4.62 3.67 6.01-.32 6.65-4.8 11.84-10.36 11.84zm.07-18.11c-5.41-.31-10.82-4.4-12.9-6.15a3.847 3.847 0 01-1.23-1.87l-1.95-6.45c-.01-.02-.02-.03-.02-.05-.02-.05-.04-.09-.06-.14-.03-.06-.06-.12-.1-.18-.03-.05-.07-.08-.1-.12l-.15-.12c-.05-.03-.1-.06-.16-.09-.05-.02-.11-.03-.17-.05-.04-.01-.08-.03-.13-.04-3.45-.3-5.28-2.05-5.42-5.19-.09-1.99.39-2.5.53-2.61.16-.11.4-.13.64-.1-.05 1.9.01 3.33.01 3.39.02.47.36.86.82.94.43.14.94-.21 1.1-.59 7.95-18.84 18.3-16.98 23.29-16.09 3.23.59 4.89-.42 5.72-1.5 1.61 1.82 3.25 2.48 4.51 2.97.55.22 1.04.41 1.32.62.66.71 1.08 5.7 1.04 9.74v.11c0 .88 1.14 1.33 1.73.67.7-.29 1.25-.36 1.53-.17.16.1.65.59.56 2.61-.11 2.51-1.27 4.09-3.52 4.83-.03.01-.05.03-.08.04-.06.03-.11.06-.17.1l-.15.12-.11.14c-.04.06-.07.12-.1.19-.01.02-.03.04-.04.07l-2.1 6.95c-.22.74-.65 1.39-1.23 1.87-2.08 1.75-7.49 5.84-12.91 6.15z"/></svg>