<svg xmlns="http://www.w3.org/2000/svg" viewBox="0 0 512 512"><path d="M73.946 303.14h10.309v56.556h10V303.14h10.307a5 5 0 000-10H73.946a5 5 0 000 10zM110.832 369.695l-83.801 60.589v18.168l110.588-78.757zM27.031 460.729v12.417h244.247V369.695h-116.42zM68.957 369.695c-.859.708 3.757-2.508-41.926 28.225v20.024l66.734-48.248H68.957zM460.924 135.509c8.861 0 16.07-7.209 16.07-16.07s-7.209-16.07-16.07-16.07-16.07 7.209-16.07 16.07 7.209 16.07 16.07 16.07zM27.031 369.695v16.178l24.081-16.178zM43.911 219.043c6.978 0 12.654-5.676 12.654-12.653 0-6.978-5.676-12.654-12.654-12.654-6.977 0-12.653 5.676-12.653 12.654 0 6.977 5.676 12.653 12.653 12.653zM332.475 62.244c-28.895-1.796-56.37 10.813-80.315 24.821l37.074 37.064c9.351-25.852 23.021-45.478 43.241-61.885zM143.76 268.95c3.094 3.103 8.062 2.979 11.037.002l24.323-24.323c3.044-3.037 3.04-7.988-.005-11.042l-37.586-37.571c-.1-.067-2.014-2.279-5.52-2.279-2.093 0-4.05.808-5.512 2.273l-24.34 24.326c-3.02 3.038-3.021 7.998.011 11.047zM251.652 207.482l107.086 107.073 32.344-32.342-107.067-107.094-32.363 32.363zM474.465 347.252l-67.141-67.138c-6.623 6.623-38.741 38.744-50.666 50.663l67.136 67.144c13.682 13.683 36.175 13.918 50.14.522 14.504-13.915 14.741-36.982.531-51.191zM181.101 221.432l14.145-14.145-27.401-27.4-14.155 14.146 27.411 27.399zM171.382 169.281l34.471 34.471 9.178 9.178c4.678 4.681 12.348 4.683 17.027.001l57.406-57.404c4.693-4.695 4.693-12.335 0-17.028l-50.042-50.028h-.001c-4.693-4.694-12.333-4.695-17.028 0l-57.391 57.405c-4.719 4.708-4.654 12.374 0 17.027l6.38 6.378z"/><circle cx="369.67" cy="466.806" r="8.69"/><circle cx="206.719" cy="45.194" r="8.69"/><path d="M164.636 359.695v-19.289h10.309a5 5 0 000-10h-30.617a5 5 0 000 10h10.308v19.289z"/></svg>