<svg xmlns="http://www.w3.org/2000/svg" viewBox="0 0 512 512"><path d="M379 16.3c-14.1 4.8-25.1 14.3-31.3 26.9-4.5 9.2-5.6 14.1-5.7 24.9 0 14.9 5.2 27.3 15.9 37.9 10.6 10.5 23.5 16 37.8 16 35.1.1 61.5-33.8 52.8-67.4-4.9-18.9-21.4-35.4-39.5-39.5-8.1-1.9-22.8-1.3-30 1.2zM70.1 64.6c-4.6 1.3-8.5 2.5-8.7 2.7-.3.2 7.4 29.3 17.1 64.6 9.6 35.3 17.5 64.4 17.5 64.7 0 .2 24.5.4 54.5.4H205v-20l-46.7-.2-46.8-.3L96 119.6c-8.5-31.3-15.9-57-16.5-57.2-.5-.1-4.8.8-9.4 2.2zM386.4 126c-5.7 1.2-15.3 5.7-25.3 11.9-14.9 9.2-27.4 13.2-47.6 15.2-17.8 1.7-32.4.8-65.7-4.2-11.3-1.7-17.3-.1-23.5 6.3-10.7 10.9-9.3 27.8 2.9 36.5 5.3 3.8 15.7 6.2 37.8 8.8 23.6 2.8 61.3 1.6 74.9-2.5 1.9-.5 3.7-.7 3.9-.5.5.4-6 63.6-7.5 73.6l-.5 3.5-15.3 1.3c-34.1 2.7-57.4 11.6-66.9 25.4-7.5 10.8-16 34.2-29.6 80.7-16.7 57.5-18.6 66.7-15.9 76.4 1.5 5.3 8.8 12.9 15.1 15.6 7.1 3 16.6 2.5 23.3-1.4 8-4.7 10.7-9.8 16.5-30.6 12-43.5 25.8-85.5 32.3-99 2.9-5.8 3.8-6.8 8.7-9.2 10.6-5.2 17.1-6 59.5-6.7 36.2-.7 39.5-.9 45.5-2.9 7.3-2.4 15.3-8 18.7-13.1 5.2-7.7 5.9-11.6 13.3-78.1 6.4-57.8 7-65.1 6-70-3.6-16.7-19.7-32.1-38.1-36.5-6.9-1.6-15.9-1.8-22.5-.5zM458.5 180.2c-.2.7-2 24.5-4 52.8s-4.2 55.1-4.9 59.5c-3.4 20.1-13.6 34.9-28.6 41.3-9.5 4.1-14.6 4.6-49 5.2l-33.5.5-.3 14.9c-.2 10.1.1 15.3.9 16.2.9 1.1 6 1.4 25.5 1.4H389v66h-8.5c-20 0-32.3 6.7-39.5 21.4-3.4 7-5.4 17.5-3.5 18.2.6.3 5.8.3 11.5.2l10.4-.3.7-3.4c.9-4.5 3.8-8.2 8-10.3 3-1.6 7-1.8 36.7-1.8 35.9 0 37.3.2 42.1 5.3 1.3 1.5 2.7 4.4 3 6.4l.6 3.8 10.9.3c6 .1 11.3-.1 11.7-.5 1.4-1.4-.9-12.4-3.7-18-3.9-7.6-10.4-13.9-18.2-17.6-5.9-2.7-7.9-3.1-17.9-3.5l-11.3-.5v-69.4l7.8-1.3c31.5-5 47.9-31 54.2-86 1.6-14.5 7.9-100.3 7.4-101.2-.3-.5-7.7-.8-16.5-.8-11.9 0-16.1.3-16.4 1.2zM0 219.5V233h21v60.2c.1 33.2.2 87.7.3 121.3l.2 61h177l.2-61c.1-33.6.2-88.1.3-121.3V233h51v-27H0v13.5z"/></svg>