<svg xmlns="http://www.w3.org/2000/svg" viewBox="0 0 512 512"><path d="M381.847 197.425a100.797 100.797 0 0029.4 4.389c26.194-.001 51.87-10.252 71.228-29.611 30.173-30.173 38.093-76.315 19.707-114.819l-.704-1.474-45.195 45.195c-13.038 13.038-34.177 13.038-47.215 0-13.038-13.038-13.038-34.177 0-47.215l44.55-44.55-.715-.325C414.045-8.649 368.036.156 338.419 30.927c-13.176 13.689-22.158 30.805-25.976 49.498a101.899 101.899 0 00.993 45.208l-36.852 37.062 69.912 70.275zM130.152 314.575c-35.442-10.797-74.002-1.402-100.628 25.223C-.649 369.971-8.567 416.113 9.819 454.616l1.28 2.681 44.619-44.619c13.038-13.038 34.177-13.038 47.215 0 13.038 13.038 13.038 34.177 0 47.215l-43.318 43.318a100.502 100.502 0 0041.13 8.789c26.901-.001 53.4-10.735 72.836-30.928 13.176-13.689 22.158-30.805 25.977-49.498a101.913 101.913 0 00-.994-45.208l36.731-36.941-69.912-70.275zM408.307 304.501a103.17 103.17 0 00-29.431 4.255L203.384 132.352a103.2 103.2 0 004.003-28.546C207.387 46.629 160.871.113 103.694.113S0 46.63 0 103.806s46.517 103.693 103.693 103.693c10.044 0 19.904-1.428 29.432-4.255l175.491 176.404a103.175 103.175 0 00-4.003 28.547c0 57.177 46.516 103.693 103.693 103.693S512 465.371 512 408.194s-46.516-103.693-103.693-103.693zM103.693 146.674c-23.637 0-42.868-19.23-42.868-42.868 0-23.637 19.231-42.868 42.868-42.868s42.868 19.231 42.868 42.868c.001 23.638-19.23 42.868-42.868 42.868zm304.614 304.388c-23.637 0-42.868-19.23-42.868-42.868 0-23.637 19.231-42.868 42.868-42.868s42.868 19.231 42.868 42.868-19.231 42.868-42.868 42.868z"/></svg>